<?xml version="1.0" encoding="UTF-8"?>
<svg width="80mm" height="80mm" version="1.1" viewBox="0 0 80 80" xmlns="http://www.w3.org/2000/svg">
  <title>SVG Image created as 2x2.svg date 2024/02/23 22:39:16</title>
  <desc>Image generated by Eeschema-SVG</desc>
  <g transform="translate(5e-5 5e-5)" fill="#f5f4ef" stroke="#f5f4ef" stroke-linecap="round" stroke-linejoin="round" stroke-width="1e-4">
    <rect width="297" height="210" rx="0"/>
  </g>
  <g transform="translate(5e-5 5e-5)" fill="#f5f4ef" fill-opacity="0" stroke-linecap="round" stroke-linejoin="round" stroke-width=".1524">
    <g stroke="#840000">
      <g stroke-width=".254">
        <path d="m45.47 47.75h-2.032" fill="none" stroke="#840000" stroke-linecap="round" stroke-linejoin="round" stroke-width=".254"/>
      </g>
      <g stroke-width=".1524">
        <path d="m44.45 47.75v-1.524" fill="none" stroke="#840000" stroke-linecap="round" stroke-linejoin="round" stroke-width=".1524"/>
      </g>
      <g stroke-width=".254">
        <path d="m45.47 46.23-1.016 1.524-1.016-1.524z" fill="none" stroke="#840000" stroke-linecap="round" stroke-linejoin="round" stroke-width=".254"/>
      </g>
      <g fill="#840000" stroke-width=".1524">
        <path d="m44.45 47.75v1.778"/>
        <path d="m44.45 46.23v-1.778"/>
      </g>
    </g>
    <g fill="#006464" stroke="#006464" stroke-width=".1524">
      <text x="47.0709" y="46.355" font-size="1.693px" opacity="0" text-anchor="middle" lengthAdjust="spacingAndGlyphs" textLength="2.6826999">D4</text>
      <g class="stroked-text">
        <desc>D4</desc>
        <path d="m46.13 46.3v-1.27"/>
        <path d="m46.13 45.03h0.3024"/>
        <path d="m46.44 45.03 0.1814 0.0605"/>
        <path d="m46.62 45.09 0.121 0.121"/>
        <path d="m46.74 45.21 0.0605 0.1209"/>
        <path d="m46.8 45.33 0.0604 0.2419"/>
        <path d="m46.86 45.57v0.1814"/>
        <path d="m46.86 45.76-0.0604 0.2419"/>
        <path d="m46.8 46-0.0605 0.121"/>
        <path d="m46.74 46.12-0.121 0.121"/>
        <path d="m46.62 46.24-0.1814 0.0604"/>
        <path d="m46.44 46.3h-0.3024"/>
        <path d="m47.95 45.45v0.8466"/>
        <path d="m47.65 44.97-0.3023 0.9071"/>
        <path d="m47.34 45.88h0.7861"/>
      </g>
    </g>
  </g>
  <g fill-opacity="0" stroke-linecap="round" stroke-linejoin="round" stroke-width=".1524">
    <g transform="translate(5e-5 5e-5)" stroke="#006464">
      <g fill="#840000" stroke="#840000" stroke-width=".1524">
        <circle cx="40.74" cy="21.69" r=".508"/>
        <g fill="none" stroke="#840000" stroke-linecap="round" stroke-linejoin="round" stroke-width=".1524">
          <path d="m41.4 20.32 3.048 3.048"/>
          <path d="m42.93 21.84 1.016-1.016"/>
          <path d="m39.37 20.32 1.016 1.016"/>
          <path d="m43.43 24.38 1.016 1.016"/>
        </g>
        <circle cx="43.05" cy="24.05" r=".508"/>
        <path d="m39.37 20.32"/>
        <path d="m44.45 25.4"/>
      </g>
      <g fill="#006464" stroke="#006464" stroke-width=".1524">
        <text x="41.91" y="18.415001" font-size="1.693px" opacity="0" text-anchor="middle" lengthAdjust="spacingAndGlyphs" textLength="4.0735998">SW2</text>
        <g class="stroked-text">
          <desc>SW2</desc>
          <path d="m40.22 18.3 0.1814 0.0604"/>
          <path d="m40.4 18.36h0.3024"/>
          <path d="m40.7 18.36 0.1209-0.0604"/>
          <path d="m40.82 18.3 0.0605-0.0605"/>
          <path d="m40.88 18.24 0.0605-0.121"/>
          <path d="m40.94 18.12v-0.1209"/>
          <path d="m40.94 18-0.0605-0.121"/>
          <path d="m40.88 17.88-0.0605-0.0605"/>
          <path d="m40.82 17.82-0.1209-0.0604"/>
          <path d="m40.7 17.75-0.2419-0.0605"/>
          <path d="m40.46 17.69-0.121-0.0605"/>
          <path d="m40.34 17.63-0.0605-0.0605"/>
          <path d="m40.28 17.57-0.0604-0.1209"/>
          <path d="m40.22 17.45v-0.121"/>
          <path d="m40.22 17.33 0.0604-0.1209"/>
          <path d="m40.28 17.21 0.0605-0.0605"/>
          <path d="m40.34 17.15 0.121-0.0605"/>
          <path d="m40.46 17.09h0.3023"/>
          <path d="m40.76 17.09 0.1815 0.0605"/>
          <path d="m41.37 17.09 0.3024 1.27"/>
          <path d="m41.67 18.36 0.2419-0.9071"/>
          <path d="m41.91 17.45 0.2419 0.9071"/>
          <path d="m42.15 18.36 0.3024-1.27"/>
          <path d="m42.88 17.21 0.0604-0.0605"/>
          <path d="m42.94 17.15 0.121-0.0605"/>
          <path d="m43.06 17.09h0.3024"/>
          <path d="m43.36 17.09 0.1209 0.0605"/>
          <path d="m43.48 17.15 0.0605 0.0605"/>
          <path d="m43.54 17.21 0.0605 0.1209"/>
          <path d="m43.6 17.33v0.121"/>
          <path d="m43.6 17.45-0.0605 0.1814"/>
          <path d="m43.54 17.63-0.7257 0.7257"/>
          <path d="m42.82 18.36h0.7862"/>
        </g>
      </g>
      <g stroke="#840000">
        <g stroke-width=".254">
          <path d="m32.77 47.75h-2.032" fill="none" stroke="#840000" stroke-linecap="round" stroke-linejoin="round" stroke-width=".254"/>
        </g>
        <g stroke-width=".1524">
          <path d="m31.75 47.75v-1.524" fill="none" stroke="#840000" stroke-linecap="round" stroke-linejoin="round" stroke-width=".1524"/>
        </g>
        <g stroke-width=".254">
          <path d="m32.77 46.23-1.016 1.524-1.016-1.524z" fill="none" stroke="#840000" stroke-linecap="round" stroke-linejoin="round" stroke-width=".254"/>
        </g>
        <g fill="#840000" stroke-width=".1524">
          <path d="m31.75 47.75v1.778"/>
          <path d="m31.75 46.23v-1.778"/>
        </g>
      </g>
      <g stroke-width=".1524">
        <g fill="#006464" stroke="#006464">
          <text x="34.370899" y="46.355" font-size="1.693px" opacity="0" text-anchor="middle" lengthAdjust="spacingAndGlyphs" textLength="2.6826999">D3</text>
          <g class="stroked-text">
            <desc>D3</desc>
            <path d="m33.43 46.3v-1.27"/>
            <path d="m33.43 45.03h0.3024"/>
            <path d="m33.74 45.03 0.1814 0.0605"/>
            <path d="m33.92 45.09 0.121 0.121"/>
            <path d="m34.04 45.21 0.0605 0.1209"/>
            <path d="m34.1 45.33 0.0604 0.2419"/>
            <path d="m34.16 45.57v0.1814"/>
            <path d="m34.16 45.76-0.0604 0.2419"/>
            <path d="m34.1 46-0.0605 0.121"/>
            <path d="m34.04 46.12-0.121 0.121"/>
            <path d="m33.92 46.24-0.1814 0.0604"/>
            <path d="m33.74 46.3h-0.3024"/>
            <path d="m34.58 45.03h0.7862"/>
            <path d="m35.37 45.03-0.4234 0.4838"/>
            <path d="m34.95 45.51h0.1815"/>
            <path d="m35.13 45.51 0.1209 0.0605"/>
            <path d="m35.25 45.57 0.0605 0.0605"/>
            <path d="m35.31 45.63 0.0605 0.1209"/>
            <path d="m35.37 45.76v0.3024"/>
            <path d="m35.37 46.06-0.0605 0.121"/>
            <path d="m35.31 46.18-0.0605 0.0605"/>
            <path d="m35.25 46.24-0.1209 0.0604"/>
            <path d="m35.13 46.3h-0.3629"/>
            <path d="m34.76 46.3-0.1209-0.0604"/>
            <path d="m34.64 46.24-0.0605-0.0605"/>
          </g>
        </g>
        <g fill="#840000" stroke="#840000">
          <circle cx="28.04" cy="21.69" r=".508"/>
          <g fill="none" stroke="#840000" stroke-linecap="round" stroke-linejoin="round" stroke-width=".1524">
            <path d="m28.7 20.32 3.048 3.048"/>
            <path d="m30.23 21.84 1.016-1.016"/>
            <path d="m26.67 20.32 1.016 1.016"/>
            <path d="m30.73 24.38 1.016 1.016"/>
          </g>
          <circle cx="30.35" cy="24.05" r=".508"/>
          <path d="m26.67 20.32"/>
          <path d="m31.75 25.4"/>
        </g>
        <g fill="#006464" stroke="#006464">
          <text x="29.209999" y="18.415001" font-size="1.693px" opacity="0" text-anchor="middle" lengthAdjust="spacingAndGlyphs" textLength="4.0735998">SW1</text>
          <g class="stroked-text">
            <desc>SW1</desc>
            <path d="m27.52 18.3 0.1814 0.0604"/>
            <path d="m27.7 18.36h0.3024"/>
            <path d="m28 18.36 0.1209-0.0604"/>
            <path d="m28.12 18.3 0.0605-0.0605"/>
            <path d="m28.18 18.24 0.0605-0.121"/>
            <path d="m28.24 18.12v-0.1209"/>
            <path d="m28.24 18-0.0605-0.121"/>
            <path d="m28.18 17.88-0.0605-0.0605"/>
            <path d="m28.12 17.82-0.1209-0.0604"/>
            <path d="m28 17.75-0.2419-0.0605"/>
            <path d="m27.76 17.69-0.121-0.0605"/>
            <path d="m27.64 17.63-0.0605-0.0605"/>
            <path d="m27.58 17.57-0.0604-0.1209"/>
            <path d="m27.52 17.45v-0.121"/>
            <path d="m27.52 17.33 0.0604-0.1209"/>
            <path d="m27.58 17.21 0.0605-0.0605"/>
            <path d="m27.64 17.15 0.121-0.0605"/>
            <path d="m27.76 17.09h0.3023"/>
            <path d="m28.06 17.09 0.1815 0.0605"/>
            <path d="m28.67 17.09 0.3024 1.27"/>
            <path d="m28.97 18.36 0.2419-0.9071"/>
            <path d="m29.21 17.45 0.2419 0.9071"/>
            <path d="m29.45 18.36 0.3024-1.27"/>
            <path d="m30.9 18.36h-0.7257"/>
            <path d="m30.54 18.36v-1.27"/>
            <path d="m30.54 17.09-0.1209 0.1815"/>
            <path d="m30.42 17.27-0.121 0.1209"/>
            <path d="m30.3 17.39-0.1209 0.0605"/>
          </g>
        </g>
        <g fill="#840000" stroke="#840000">
          <circle cx="28.04" cy="39.47" r=".508"/>
          <g fill="none" stroke="#840000" stroke-linecap="round" stroke-linejoin="round" stroke-width=".1524">
            <path d="m28.7 38.1 3.048 3.048"/>
            <path d="m30.23 39.62 1.016-1.016"/>
            <path d="m26.67 38.1 1.016 1.016"/>
            <path d="m30.73 42.16 1.016 1.016"/>
          </g>
          <circle cx="30.35" cy="41.83" r=".508"/>
          <path d="m26.67 38.1"/>
          <path d="m31.75 43.18"/>
        </g>
        <g fill="#006464" stroke="#006464">
          <text x="29.209999" y="36.195" font-size="1.693px" opacity="0" text-anchor="middle" lengthAdjust="spacingAndGlyphs" textLength="4.0735998">SW3</text>
          <g class="stroked-text">
            <desc>SW3</desc>
            <path d="m27.52 36.08 0.1814 0.0604"/>
            <path d="m27.7 36.14h0.3024"/>
            <path d="m28 36.14 0.1209-0.0604"/>
            <path d="m28.12 36.08 0.0605-0.0605"/>
            <path d="m28.18 36.02 0.0605-0.121"/>
            <path d="m28.24 35.9v-0.1209"/>
            <path d="m28.24 35.78-0.0605-0.121"/>
            <path d="m28.18 35.66-0.0605-0.0605"/>
            <path d="m28.12 35.6-0.1209-0.0604"/>
            <path d="m28 35.53-0.2419-0.0605"/>
            <path d="m27.76 35.47-0.121-0.0605"/>
            <path d="m27.64 35.41-0.0605-0.0605"/>
            <path d="m27.58 35.35-0.0604-0.1209"/>
            <path d="m27.52 35.23v-0.121"/>
            <path d="m27.52 35.11 0.0604-0.1209"/>
            <path d="m27.58 34.99 0.0605-0.0605"/>
            <path d="m27.64 34.93 0.121-0.0605"/>
            <path d="m27.76 34.87h0.3023"/>
            <path d="m28.06 34.87 0.1815 0.0605"/>
            <path d="m28.67 34.87 0.3024 1.27"/>
            <path d="m28.97 36.14 0.2419-0.9071"/>
            <path d="m29.21 35.23 0.2419 0.9071"/>
            <path d="m29.45 36.14 0.3024-1.27"/>
            <path d="m30.12 34.87h0.7862"/>
            <path d="m30.9 34.87-0.4234 0.4838"/>
            <path d="m30.48 35.35h0.1815"/>
            <path d="m30.66 35.35 0.1209 0.0605"/>
            <path d="m30.78 35.41 0.0605 0.0605"/>
            <path d="m30.84 35.47 0.0605 0.1209"/>
            <path d="m30.9 35.6v0.3024"/>
            <path d="m30.9 35.9-0.0605 0.121"/>
            <path d="m30.84 36.02-0.0605 0.0605"/>
            <path d="m30.78 36.08-0.1209 0.0604"/>
            <path d="m30.66 36.14h-0.3629"/>
            <path d="m30.3 36.14-0.1209-0.0604"/>
            <path d="m30.18 36.08-0.0605-0.0605"/>
          </g>
        </g>
      </g>
      <g stroke="#840000">
        <g stroke-width=".254">
          <path d="m32.77 29.97h-2.032" fill="none" stroke="#840000" stroke-linecap="round" stroke-linejoin="round" stroke-width=".254"/>
        </g>
        <g stroke-width=".1524">
          <path d="m31.75 29.97v-1.524" fill="none" stroke="#840000" stroke-linecap="round" stroke-linejoin="round" stroke-width=".1524"/>
        </g>
        <g stroke-width=".254">
          <path d="m32.77 28.45-1.016 1.524-1.016-1.524z" fill="none" stroke="#840000" stroke-linecap="round" stroke-linejoin="round" stroke-width=".254"/>
        </g>
        <g fill="#840000" stroke-width=".1524">
          <path d="m31.75 29.97v1.778"/>
          <path d="m31.75 28.45v-1.778"/>
        </g>
      </g>
      <g fill="#006464" stroke="#006464" stroke-width=".1524">
        <text x="34.370899" y="28.575001" font-size="1.693px" opacity="0" text-anchor="middle" lengthAdjust="spacingAndGlyphs" textLength="2.6826999">D1</text>
        <g class="stroked-text">
          <desc>D1</desc>
          <path d="m33.43 28.52v-1.27"/>
          <path d="m33.43 27.25h0.3024"/>
          <path d="m33.74 27.25 0.1814 0.0605"/>
          <path d="m33.92 27.31 0.121 0.121"/>
          <path d="m34.04 27.43 0.0605 0.1209"/>
          <path d="m34.1 27.55 0.0604 0.2419"/>
          <path d="m34.16 27.79v0.1814"/>
          <path d="m34.16 27.98-0.0604 0.2419"/>
          <path d="m34.1 28.22-0.0605 0.121"/>
          <path d="m34.04 28.34-0.121 0.121"/>
          <path d="m33.92 28.46-0.1814 0.0604"/>
          <path d="m33.74 28.52h-0.3024"/>
          <path d="m35.37 28.52h-0.7257"/>
          <path d="m35.01 28.52v-1.27"/>
          <path d="m35.01 27.25-0.1209 0.1815"/>
          <path d="m34.88 27.43-0.121 0.1209"/>
          <path d="m34.76 27.55-0.1209 0.0605"/>
        </g>
      </g>
      <g stroke="#840000">
        <g stroke-width=".254">
          <path d="m45.47 29.97h-2.032" fill="none" stroke="#840000" stroke-linecap="round" stroke-linejoin="round" stroke-width=".254"/>
        </g>
        <g stroke-width=".1524">
          <path d="m44.45 29.97v-1.524" fill="none" stroke="#840000" stroke-linecap="round" stroke-linejoin="round" stroke-width=".1524"/>
        </g>
        <g stroke-width=".254">
          <path d="m45.47 28.45-1.016 1.524-1.016-1.524z" fill="none" stroke="#840000" stroke-linecap="round" stroke-linejoin="round" stroke-width=".254"/>
        </g>
        <g fill="#840000" stroke-width=".1524">
          <path d="m44.45 29.97v1.778"/>
          <path d="m44.45 28.45v-1.778"/>
        </g>
      </g>
      <g stroke-width=".1524">
        <g fill="#006464" stroke="#006464">
          <text x="47.0709" y="28.575001" font-size="1.693px" opacity="0" text-anchor="middle" lengthAdjust="spacingAndGlyphs" textLength="2.6826999">D2</text>
          <g class="stroked-text">
            <desc>D2</desc>
            <path d="m46.13 28.52v-1.27"/>
            <path d="m46.13 27.25h0.3024"/>
            <path d="m46.44 27.25 0.1814 0.0605"/>
            <path d="m46.62 27.31 0.121 0.121"/>
            <path d="m46.74 27.43 0.0605 0.1209"/>
            <path d="m46.8 27.55 0.0604 0.2419"/>
            <path d="m46.86 27.79v0.1814"/>
            <path d="m46.86 27.98-0.0604 0.2419"/>
            <path d="m46.8 28.22-0.0605 0.121"/>
            <path d="m46.74 28.34-0.121 0.121"/>
            <path d="m46.62 28.46-0.1814 0.0604"/>
            <path d="m46.44 28.52h-0.3024"/>
            <path d="m47.34 27.37 0.0604-0.0605"/>
            <path d="m47.4 27.31 0.121-0.0605"/>
            <path d="m47.52 27.25h0.3024"/>
            <path d="m47.83 27.25 0.1209 0.0605"/>
            <path d="m47.95 27.31 0.0605 0.0605"/>
            <path d="m48.01 27.37 0.0605 0.1209"/>
            <path d="m48.07 27.49v0.121"/>
            <path d="m48.07 27.61-0.0605 0.1814"/>
            <path d="m48.01 27.79-0.7257 0.7257"/>
            <path d="m47.28 28.52h0.7862"/>
          </g>
        </g>
        <g fill="#840000" stroke="#840000">
          <circle cx="40.74" cy="39.47" r=".508"/>
          <g fill="none" stroke="#840000" stroke-linecap="round" stroke-linejoin="round" stroke-width=".1524">
            <path d="m41.4 38.1 3.048 3.048"/>
            <path d="m42.93 39.62 1.016-1.016"/>
            <path d="m39.37 38.1 1.016 1.016"/>
            <path d="m43.43 42.16 1.016 1.016"/>
          </g>
          <circle cx="43.05" cy="41.83" r=".508"/>
          <path d="m39.37 38.1"/>
          <path d="m44.45 43.18"/>
        </g>
        <g fill="#006464" stroke="#006464">
          <text x="41.91" y="36.195" font-size="1.693px" opacity="0" text-anchor="middle" lengthAdjust="spacingAndGlyphs" textLength="4.0735998">SW4</text>
          <g class="stroked-text">
            <desc>SW4</desc>
            <path d="m40.22 36.08 0.1814 0.0604"/>
            <path d="m40.4 36.14h0.3024"/>
            <path d="m40.7 36.14 0.1209-0.0604"/>
            <path d="m40.82 36.08 0.0605-0.0605"/>
            <path d="m40.88 36.02 0.0605-0.121"/>
            <path d="m40.94 35.9v-0.1209"/>
            <path d="m40.94 35.78-0.0605-0.121"/>
            <path d="m40.88 35.66-0.0605-0.0605"/>
            <path d="m40.82 35.6-0.1209-0.0604"/>
            <path d="m40.7 35.53-0.2419-0.0605"/>
            <path d="m40.46 35.47-0.121-0.0605"/>
            <path d="m40.34 35.41-0.0605-0.0605"/>
            <path d="m40.28 35.35-0.0604-0.1209"/>
            <path d="m40.22 35.23v-0.121"/>
            <path d="m40.22 35.11 0.0604-0.1209"/>
            <path d="m40.28 34.99 0.0605-0.0605"/>
            <path d="m40.34 34.93 0.121-0.0605"/>
            <path d="m40.46 34.87h0.3023"/>
            <path d="m40.76 34.87 0.1815 0.0605"/>
            <path d="m41.37 34.87 0.3024 1.27"/>
            <path d="m41.67 36.14 0.2419-0.9071"/>
            <path d="m41.91 35.23 0.2419 0.9071"/>
            <path d="m42.15 36.14 0.3024-1.27"/>
            <path d="m43.48 35.29v0.8466"/>
            <path d="m43.18 34.81-0.3023 0.9071"/>
            <path d="m42.88 35.72h0.7861"/>
          </g>
        </g>
      </g>
    </g>
    <g transform="translate(5e-5 5e-5)" fill="#840000" stroke="#840000">
      <text x="52.228802" y="51.525799" font-size="1.693px" opacity="0" lengthAdjust="spacingAndGlyphs" textLength="5.4646001">ROW1</text>
      <g class="stroked-text">
        <desc>ROW1</desc>
        <path d="m53.36 51.47-0.4233-0.6047"/>
        <path d="m52.63 51.47v-1.27"/>
        <path d="m52.63 50.2h0.4838"/>
        <path d="m53.12 50.2 0.121 0.0605"/>
        <path d="m53.24 50.26 0.0605 0.0605"/>
        <path d="m53.3 50.32 0.0604 0.1209"/>
        <path d="m53.36 50.44v0.1815"/>
        <path d="m53.36 50.62-0.0604 0.1209"/>
        <path d="m53.3 50.74-0.0605 0.0605"/>
        <path d="m53.24 50.81-0.121 0.0605"/>
        <path d="m53.12 50.87h-0.4838"/>
        <path d="m54.14 50.2h0.2419"/>
        <path d="m54.39 50.2 0.121 0.0605"/>
        <path d="m54.51 50.26 0.1209 0.121"/>
        <path d="m54.63 50.38 0.0605 0.2419"/>
        <path d="m54.69 50.62v0.4233"/>
        <path d="m54.69 51.05-0.0605 0.2419"/>
        <path d="m54.63 51.29-0.1209 0.121"/>
        <path d="m54.51 51.41-0.121 0.0604"/>
        <path d="m54.39 51.47h-0.2419"/>
        <path d="m54.14 51.47-0.1209-0.0604"/>
        <path d="m54.02 51.41-0.121-0.121"/>
        <path d="m53.9 51.29-0.0604-0.2419"/>
        <path d="m53.84 51.05v-0.4233"/>
        <path d="m53.84 50.62 0.0604-0.2419"/>
        <path d="m53.9 50.38 0.121-0.121"/>
        <path d="m54.02 50.26 0.1209-0.0605"/>
        <path d="m55.11 50.2 0.3024 1.27"/>
        <path d="m55.41 51.47 0.2419-0.9071"/>
        <path d="m55.66 50.56 0.2419 0.9071"/>
        <path d="m55.9 51.47 0.3024-1.27"/>
        <path d="m57.35 51.47h-0.7257"/>
        <path d="m56.99 51.47v-1.27"/>
        <path d="m56.99 50.2-0.1209 0.1815"/>
        <path d="m56.86 50.38-0.121 0.1209"/>
        <path d="m56.74 50.5-0.1209 0.0605"/>
      </g>
      <path d="m50.8 50.8 1.111 1.27h6.596v-2.541h-6.596z" fill="none" stroke="#840000" stroke-linecap="round" stroke-linejoin="round" stroke-width=".1524"/>
      <g transform="rotate(-90 38.19 56.04)">
        <text x="38.1908" y="56.673801" font-size="1.693px" opacity="0" text-anchor="end" lengthAdjust="spacingAndGlyphs" textLength="5.0412998">COL1</text>
      </g>
      <g class="stroked-text">
        <desc>COL1</desc>
        <path d="m38.65 59.95 0.0605 0.0604"/>
        <path d="m38.71 60.01 0.0604 0.1815"/>
        <path d="m38.77 60.19v0.1209"/>
        <path d="m38.77 60.31-0.0604 0.1814"/>
        <path d="m38.71 60.49-0.121 0.121"/>
        <path d="m38.59 60.61-0.121 0.0605"/>
        <path d="m38.47 60.67-0.2419 0.0604"/>
        <path d="m38.23 60.74h-0.1814"/>
        <path d="m38.04 60.74-0.2419-0.0604"/>
        <path d="m37.8 60.67-0.1209-0.0605"/>
        <path d="m37.68 60.61-0.121-0.121"/>
        <path d="m37.56 60.49-0.0605-0.1814"/>
        <path d="m37.5 60.31v-0.1209"/>
        <path d="m37.5 60.19 0.0605-0.1815"/>
        <path d="m37.56 60.01 0.0605-0.0604"/>
        <path d="m37.5 59.16v-0.2419"/>
        <path d="m37.5 58.92 0.0605-0.121"/>
        <path d="m37.56 58.8 0.121-0.1209"/>
        <path d="m37.68 58.68 0.2419-0.0605"/>
        <path d="m37.92 58.62h0.4233"/>
        <path d="m38.35 58.62 0.2419 0.0605"/>
        <path d="m38.59 58.68 0.121 0.1209"/>
        <path d="m38.71 58.8 0.0604 0.121"/>
        <path d="m38.77 58.92v0.2419"/>
        <path d="m38.77 59.16-0.0604 0.1209"/>
        <path d="m38.71 59.28-0.121 0.121"/>
        <path d="m38.59 59.4-0.2419 0.0604"/>
        <path d="m38.35 59.47h-0.4233"/>
        <path d="m37.92 59.47-0.2419-0.0604"/>
        <path d="m37.68 59.4-0.121-0.121"/>
        <path d="m37.56 59.28-0.0605-0.1209"/>
        <path d="m38.77 57.47v0.6048"/>
        <path d="m38.77 58.07h-1.27"/>
        <path d="m38.77 56.38v0.7257"/>
        <path d="m38.77 56.74h-1.27"/>
        <path d="m37.5 56.74 0.1815 0.1209"/>
        <path d="m37.68 56.86 0.1209 0.121"/>
        <path d="m37.8 56.99 0.0605 0.1209"/>
      </g>
      <path d="m38.1 54.61-1.27 1.111v6.172h2.541v-6.172z" fill="none" stroke="#840000" stroke-linecap="round" stroke-linejoin="round" stroke-width=".1524"/>
      <text x="52.228802" y="33.7458" font-size="1.693px" opacity="0" lengthAdjust="spacingAndGlyphs" textLength="5.4646001">ROW0</text>
      <g class="stroked-text">
        <desc>ROW0</desc>
        <path d="m53.36 33.69-0.4233-0.6047"/>
        <path d="m52.63 33.69v-1.27"/>
        <path d="m52.63 32.42h0.4838"/>
        <path d="m53.12 32.42 0.121 0.0605"/>
        <path d="m53.24 32.48 0.0605 0.0605"/>
        <path d="m53.3 32.54 0.0604 0.1209"/>
        <path d="m53.36 32.66v0.1815"/>
        <path d="m53.36 32.84-0.0604 0.1209"/>
        <path d="m53.3 32.96-0.0605 0.0605"/>
        <path d="m53.24 33.03-0.121 0.0605"/>
        <path d="m53.12 33.09h-0.4838"/>
        <path d="m54.14 32.42h0.2419"/>
        <path d="m54.39 32.42 0.121 0.0605"/>
        <path d="m54.51 32.48 0.1209 0.121"/>
        <path d="m54.63 32.6 0.0605 0.2419"/>
        <path d="m54.69 32.84v0.4233"/>
        <path d="m54.69 33.27-0.0605 0.2419"/>
        <path d="m54.63 33.51-0.1209 0.121"/>
        <path d="m54.51 33.63-0.121 0.0604"/>
        <path d="m54.39 33.69h-0.2419"/>
        <path d="m54.14 33.69-0.1209-0.0604"/>
        <path d="m54.02 33.63-0.121-0.121"/>
        <path d="m53.9 33.51-0.0604-0.2419"/>
        <path d="m53.84 33.27v-0.4233"/>
        <path d="m53.84 32.84 0.0604-0.2419"/>
        <path d="m53.9 32.6 0.121-0.121"/>
        <path d="m54.02 32.48 0.1209-0.0605"/>
        <path d="m55.11 32.42 0.3024 1.27"/>
        <path d="m55.41 33.69 0.2419-0.9071"/>
        <path d="m55.66 32.78 0.2419 0.9071"/>
        <path d="m55.9 33.69 0.3024-1.27"/>
        <path d="m56.93 32.42h0.121"/>
        <path d="m57.05 32.42 0.1209 0.0605"/>
        <path d="m57.17 32.48 0.0605 0.0605"/>
        <path d="m57.23 32.54 0.0605 0.1209"/>
        <path d="m57.29 32.66 0.0605 0.2419"/>
        <path d="m57.35 32.9v0.3024"/>
        <path d="m57.35 33.21-0.0605 0.2419"/>
        <path d="m57.29 33.45-0.0605 0.121"/>
        <path d="m57.23 33.57-0.0605 0.0605"/>
        <path d="m57.17 33.63-0.1209 0.0604"/>
        <path d="m57.05 33.69h-0.121"/>
        <path d="m56.93 33.69-0.1209-0.0604"/>
        <path d="m56.8 33.63-0.0605-0.0605"/>
        <path d="m56.74 33.57-0.0605-0.121"/>
        <path d="m56.68 33.45-0.0604-0.2419"/>
        <path d="m56.62 33.21v-0.3024"/>
        <path d="m56.62 32.9 0.0604-0.2419"/>
        <path d="m56.68 32.66 0.0605-0.1209"/>
        <path d="m56.74 32.54 0.0605-0.0605"/>
        <path d="m56.8 32.48 0.1209-0.0605"/>
      </g>
      <path d="m50.8 33.02 1.111 1.27h6.596v-2.541h-6.596z" fill="none" stroke="#840000" stroke-linecap="round" stroke-linejoin="round" stroke-width=".1524"/>
      <g transform="rotate(-90 25.49 56.04)">
        <text x="25.490801" y="56.673801" font-size="1.693px" opacity="0" text-anchor="end" lengthAdjust="spacingAndGlyphs" textLength="5.0412998">COL0</text>
      </g>
      <g class="stroked-text">
        <desc>COL0</desc>
        <path d="m25.95 59.95 0.0605 0.0604"/>
        <path d="m26.01 60.01 0.0604 0.1815"/>
        <path d="m26.07 60.19v0.1209"/>
        <path d="m26.07 60.31-0.0604 0.1814"/>
        <path d="m26.01 60.49-0.121 0.121"/>
        <path d="m25.89 60.61-0.121 0.0605"/>
        <path d="m25.77 60.67-0.2419 0.0604"/>
        <path d="m25.53 60.74h-0.1814"/>
        <path d="m25.34 60.74-0.2419-0.0604"/>
        <path d="m25.1 60.67-0.1209-0.0605"/>
        <path d="m24.98 60.61-0.121-0.121"/>
        <path d="m24.86 60.49-0.0605-0.1814"/>
        <path d="m24.8 60.31v-0.1209"/>
        <path d="m24.8 60.19 0.0605-0.1815"/>
        <path d="m24.86 60.01 0.0605-0.0604"/>
        <path d="m24.8 59.16v-0.2419"/>
        <path d="m24.8 58.92 0.0605-0.121"/>
        <path d="m24.86 58.8 0.121-0.1209"/>
        <path d="m24.98 58.68 0.2419-0.0605"/>
        <path d="m25.22 58.62h0.4233"/>
        <path d="m25.65 58.62 0.2419 0.0605"/>
        <path d="m25.89 58.68 0.121 0.1209"/>
        <path d="m26.01 58.8 0.0604 0.121"/>
        <path d="m26.07 58.92v0.2419"/>
        <path d="m26.07 59.16-0.0604 0.1209"/>
        <path d="m26.01 59.28-0.121 0.121"/>
        <path d="m25.89 59.4-0.2419 0.0604"/>
        <path d="m25.65 59.47h-0.4233"/>
        <path d="m25.22 59.47-0.2419-0.0604"/>
        <path d="m24.98 59.4-0.121-0.121"/>
        <path d="m24.86 59.28-0.0605-0.1209"/>
        <path d="m26.07 57.47v0.6048"/>
        <path d="m26.07 58.07h-1.27"/>
        <path d="m24.8 56.8v-0.121"/>
        <path d="m24.8 56.68 0.0605-0.1209"/>
        <path d="m24.86 56.56 0.0605-0.0605"/>
        <path d="m24.92 56.5 0.1209-0.0605"/>
        <path d="m25.04 56.44 0.2419-0.0605"/>
        <path d="m25.28 56.38h0.3024"/>
        <path d="m25.59 56.38 0.2419 0.0605"/>
        <path d="m25.83 56.44 0.121 0.0605"/>
        <path d="m25.95 56.5 0.0605 0.0605"/>
        <path d="m26.01 56.56 0.0604 0.1209"/>
        <path d="m26.07 56.68v0.121"/>
        <path d="m26.07 56.8-0.0604 0.1209"/>
        <path d="m26.01 56.93-0.0605 0.0605"/>
        <path d="m25.95 56.99-0.121 0.0605"/>
        <path d="m25.83 57.05-0.2419 0.0604"/>
        <path d="m25.59 57.11h-0.3024"/>
        <path d="m25.28 57.11-0.2419-0.0604"/>
        <path d="m25.04 57.05-0.1209-0.0605"/>
        <path d="m24.92 56.99-0.0605-0.0605"/>
        <path d="m24.86 56.93-0.0605-0.1209"/>
      </g>
      <path d="m25.4 54.61-1.27 1.111v6.172h2.541v-6.172z" fill="none" stroke="#840000" stroke-linecap="round" stroke-linejoin="round" stroke-width=".1524"/>
    </g>
    <g transform="translate(5e-5 5e-5)" fill="#009600" stroke="#009600">
      <path d="m31.75 31.75v1.27"/>
      <path d="m44.45 43.18v1.27"/>
      <path d="m38.1 20.32v34.29"/>
      <path d="m26.67 20.32h-1.27"/>
      <path d="m31.75 50.8h19.05"/>
      <path d="m44.45 49.53v1.27"/>
      <path d="m31.75 25.4v1.27"/>
      <path d="m25.4 20.32v34.29"/>
      <path d="m31.75 33.02h19.05"/>
      <path d="m39.37 38.1h-1.27"/>
      <path d="m39.37 20.32h-1.27"/>
      <path d="m44.45 25.4v1.27"/>
      <path d="m44.45 31.75v1.27"/>
      <path d="m31.75 49.53v1.27"/>
      <path d="m31.75 43.18v1.27"/>
      <path d="m26.67 38.1h-1.27"/>
    </g>
  </g>
  <g transform="translate(5e-5 5e-5)" fill="#009600" stroke="#009600" stroke-linecap="round" stroke-linejoin="round" stroke-width=".1524">
    <circle cx="25.4" cy="38.1" r=".4572"/>
    <circle cx="44.45" cy="33.02" r=".4572"/>
    <circle cx="38.1" cy="38.1" r=".4572"/>
    <circle cx="44.45" cy="50.8" r=".4572"/>
  </g>
</svg>
