<?xml version="1.0" encoding="UTF-8"?>
<svg version="1.1" viewBox="0 0 702 362" xmlns="http://www.w3.org/2000/svg" xmlns:xlink="http://www.w3.org/1999/xlink">
  <defs>
    <g id="d0">
      <rect width="49.26" height="49.26" rx="5" fill="none" stroke="#000" stroke-width="2"/>
      <rect x="1" y="1" width="47.26" height="47.26" rx="5" fill="#ccc"/>
      <rect x="6" y="4" width="37.26" height="37.26" rx="5" fill="#fcfcfc"/>
    </g>
    <g id="d1">
      <rect width="49.26" height="49.26" rx="5" fill="none" stroke="#000" stroke-width="2"/>
      <rect x="1" y="1" width="47.26" height="47.26" rx="5" fill="#ccc"/>
      <rect x="6" y="4" width="37.26" height="37.26" rx="5" fill="#fcfcfc"/>
    </g>
    <g id="x">
      <rect width="49.26" height="49.26" rx="5" fill="none" stroke="#000" stroke-width="2"/>
      <rect x="1" y="1" width="47.26" height="47.26" rx="5" fill="#ccc"/>
      <rect x="6" y="4" width="37.26" height="37.26" rx="5" fill="#fcfcfc"/>
    </g>
    <g id="m">
      <rect width="49.26" height="49.26" rx="5" fill="none" stroke="#000" stroke-width="2"/>
      <rect x="1" y="1" width="47.26" height="47.26" rx="5" fill="#ccc"/>
      <rect x="6" y="4" width="37.26" height="37.26" rx="5" fill="#fcfcfc"/>
    </g>
    <g id="f">
      <rect width="49.26" height="49.26" rx="5" fill="none" stroke="#000" stroke-width="2"/>
      <rect x="1" y="1" width="47.26" height="47.26" rx="5" fill="#ccc"/>
      <rect x="6" y="4" width="37.26" height="37.26" rx="5" fill="#fcfcfc"/>
    </g>
    <g id="e">
      <rect width="49.26" height="49.26" rx="5" fill="none" stroke="#000" stroke-width="2"/>
      <rect x="1" y="1" width="47.26" height="47.26" rx="5" fill="#ccc"/>
      <rect x="6" y="4" width="37.26" height="37.26" rx="5" fill="#fcfcfc"/>
    </g>
    <g id="d">
      <rect width="49.26" height="49.26" rx="5" fill="none" stroke="#000" stroke-width="2"/>
      <rect x="1" y="1" width="47.26" height="47.26" rx="5" fill="#ccc"/>
      <rect x="6" y="4" width="37.26" height="37.26" rx="5" fill="#fcfcfc"/>
    </g>
    <g id="c">
      <rect width="49.26" height="49.26" rx="5" fill="none" stroke="#000" stroke-width="2"/>
      <rect x="1" y="1" width="47.26" height="47.26" rx="5" fill="#ccc"/>
      <rect x="6" y="4" width="37.26" height="37.26" rx="5" fill="#fcfcfc"/>
    </g>
    <g id="b">
      <rect width="49.26" height="49.26" rx="5" fill="none" stroke="#000" stroke-width="2"/>
      <rect x="1" y="1" width="47.26" height="47.26" rx="5" fill="#ccc"/>
      <rect x="6" y="4" width="37.26" height="37.26" rx="5" fill="#fcfcfc"/>
    </g>
    <g id="a">
      <rect width="49.26" height="49.26" rx="5" fill="none" stroke="#000" stroke-width="2"/>
      <rect x="1" y="1" width="47.26" height="47.26" rx="5" fill="#ccc"/>
      <rect x="6" y="4" width="37.26" height="37.26" rx="5" fill="#fcfcfc"/>
    </g>
    <g id="ah">
      <rect width="49.26" height="49.26" rx="5" fill="none" stroke="#000" stroke-width="2"/>
      <rect x="1" y="1" width="47.26" height="47.26" rx="5" fill="#ccc"/>
      <rect x="6" y="4" width="37.26" height="37.26" rx="5" fill="#fcfcfc"/>
    </g>
    <g id="ag">
      <rect width="49.26" height="49.26" rx="5" fill="none" stroke="#000" stroke-width="2"/>
      <rect x="1" y="1" width="47.26" height="47.26" rx="5" fill="#ccc"/>
      <rect x="6" y="4" width="37.26" height="37.26" rx="5" fill="#fcfcfc"/>
    </g>
    <g id="af">
      <rect width="49.26" height="49.26" rx="5" fill="none" stroke="#000" stroke-width="2"/>
      <rect x="1" y="1" width="47.26" height="47.26" rx="5" fill="#ccc"/>
      <rect x="6" y="4" width="37.26" height="37.26" rx="5" fill="#fcfcfc"/>
    </g>
    <g id="ae">
      <rect width="49.26" height="49.26" rx="5" fill="none" stroke="#000" stroke-width="2"/>
      <rect x="1" y="1" width="47.26" height="47.26" rx="5" fill="#ccc"/>
      <rect x="6" y="4" width="37.26" height="37.26" rx="5" fill="#fcfcfc"/>
    </g>
    <g id="ad">
      <rect width="49.26" height="49.26" rx="5" fill="none" stroke="#000" stroke-width="2"/>
      <rect x="1" y="1" width="47.26" height="47.26" rx="5" fill="#ccc"/>
      <rect x="6" y="4" width="37.26" height="37.26" rx="5" fill="#fcfcfc"/>
    </g>
    <g id="ac">
      <rect width="49.26" height="49.26" rx="5" fill="none" stroke="#000" stroke-width="2"/>
      <rect x="1" y="1" width="47.26" height="47.26" rx="5" fill="#ccc"/>
      <rect x="6" y="4" width="37.26" height="37.26" rx="5" fill="#fcfcfc"/>
    </g>
    <g id="ab">
      <rect width="49.26" height="49.26" rx="5" fill="none" stroke="#000" stroke-width="2"/>
      <rect x="1" y="1" width="47.26" height="47.26" rx="5" fill="#ccc"/>
      <rect x="6" y="4" width="37.26" height="37.26" rx="5" fill="#fcfcfc"/>
    </g>
    <g id="aa">
      <rect width="49.26" height="49.26" rx="5" fill="none" stroke="#000" stroke-width="2"/>
      <rect x="1" y="1" width="47.26" height="47.26" rx="5" fill="#ccc"/>
      <rect x="6" y="4" width="37.26" height="37.26" rx="5" fill="#fcfcfc"/>
    </g>
    <g id="z">
      <rect width="49.26" height="49.26" rx="5" fill="none" stroke="#000" stroke-width="2"/>
      <rect x="1" y="1" width="47.26" height="47.26" rx="5" fill="#ccc"/>
      <rect x="6" y="4" width="37.26" height="37.26" rx="5" fill="#fcfcfc"/>
    </g>
    <g id="y">
      <rect width="49.26" height="49.26" rx="5" fill="none" stroke="#000" stroke-width="2"/>
      <rect x="1" y="1" width="47.26" height="47.26" rx="5" fill="#ccc"/>
      <rect x="6" y="4" width="37.26" height="37.26" rx="5" fill="#fcfcfc"/>
    </g>
    <g id="w">
      <rect width="49.26" height="49.26" rx="5" fill="none" stroke="#000" stroke-width="2"/>
      <rect x="1" y="1" width="47.26" height="47.26" rx="5" fill="#ccc"/>
      <rect x="6" y="4" width="37.26" height="37.26" rx="5" fill="#fcfcfc"/>
    </g>
    <g id="v">
      <rect width="49.26" height="49.26" rx="5" fill="none" stroke="#000" stroke-width="2"/>
      <rect x="1" y="1" width="47.26" height="47.26" rx="5" fill="#ccc"/>
      <rect x="6" y="4" width="37.26" height="37.26" rx="5" fill="#fcfcfc"/>
    </g>
    <g id="u">
      <rect width="49.26" height="49.26" rx="5" fill="none" stroke="#000" stroke-width="2"/>
      <rect x="1" y="1" width="47.26" height="47.26" rx="5" fill="#ccc"/>
      <rect x="6" y="4" width="37.26" height="37.26" rx="5" fill="#fcfcfc"/>
    </g>
    <g id="t">
      <rect width="49.26" height="49.26" rx="5" fill="none" stroke="#000" stroke-width="2"/>
      <rect x="1" y="1" width="47.26" height="47.26" rx="5" fill="#ccc"/>
      <rect x="6" y="4" width="37.26" height="37.26" rx="5" fill="#fcfcfc"/>
    </g>
    <g id="s">
      <rect width="49.26" height="49.26" rx="5" fill="none" stroke="#000" stroke-width="2"/>
      <rect x="1" y="1" width="47.26" height="47.26" rx="5" fill="#ccc"/>
      <rect x="6" y="4" width="37.26" height="37.26" rx="5" fill="#fcfcfc"/>
    </g>
    <g id="r">
      <rect width="49.26" height="49.26" rx="5" fill="none" stroke="#000" stroke-width="2"/>
      <rect x="1" y="1" width="47.26" height="47.26" rx="5" fill="#ccc"/>
      <rect x="6" y="4" width="37.26" height="37.26" rx="5" fill="#fcfcfc"/>
    </g>
    <g id="q">
      <rect width="49.26" height="49.26" rx="5" fill="none" stroke="#000" stroke-width="2"/>
      <rect x="1" y="1" width="47.26" height="47.26" rx="5" fill="#ccc"/>
      <rect x="6" y="4" width="37.26" height="37.26" rx="5" fill="#fcfcfc"/>
    </g>
    <g id="p">
      <rect width="49.26" height="49.26" rx="5" fill="none" stroke="#000" stroke-width="2"/>
      <rect x="1" y="1" width="47.26" height="47.26" rx="5" fill="#ccc"/>
      <rect x="6" y="4" width="37.26" height="37.26" rx="5" fill="#fcfcfc"/>
    </g>
    <g id="o">
      <rect width="49.26" height="49.26" rx="5" fill="none" stroke="#000" stroke-width="2"/>
      <rect x="1" y="1" width="47.26" height="47.26" rx="5" fill="#ccc"/>
      <rect x="6" y="4" width="37.26" height="37.26" rx="5" fill="#fcfcfc"/>
    </g>
    <g id="n">
      <rect width="49.26" height="49.26" rx="5" fill="none" stroke="#000" stroke-width="2"/>
      <rect x="1" y="1" width="47.26" height="47.26" rx="5" fill="#ccc"/>
      <rect x="6" y="4" width="37.26" height="37.26" rx="5" fill="#fcfcfc"/>
    </g>
    <g id="l">
      <rect width="49.26" height="49.26" rx="5" fill="none" stroke="#000" stroke-width="2"/>
      <rect x="1" y="1" width="47.26" height="47.26" rx="5" fill="#ccc"/>
      <rect x="6" y="4" width="37.26" height="37.26" rx="5" fill="#fcfcfc"/>
    </g>
    <g id="k">
      <rect width="49.26" height="49.26" rx="5" fill="none" stroke="#000" stroke-width="2"/>
      <rect x="1" y="1" width="47.26" height="47.26" rx="5" fill="#ccc"/>
      <rect x="6" y="4" width="37.26" height="37.26" rx="5" fill="#fcfcfc"/>
    </g>
    <g id="j">
      <rect width="49.26" height="49.26" rx="5" fill="none" stroke="#000" stroke-width="2"/>
      <rect x="1" y="1" width="47.26" height="47.26" rx="5" fill="#ccc"/>
      <rect x="6" y="4" width="37.26" height="37.26" rx="5" fill="#fcfcfc"/>
    </g>
    <g id="i">
      <rect width="49.26" height="49.26" rx="5" fill="none" stroke="#000" stroke-width="2"/>
      <rect x="1" y="1" width="47.26" height="47.26" rx="5" fill="#ccc"/>
      <rect x="6" y="4" width="37.26" height="37.26" rx="5" fill="#fcfcfc"/>
    </g>
    <g id="h">
      <rect width="49.26" height="49.26" rx="5" fill="none" stroke="#000" stroke-width="2"/>
      <rect x="1" y="1" width="47.26" height="47.26" rx="5" fill="#ccc"/>
      <rect x="6" y="4" width="37.26" height="37.26" rx="5" fill="#fcfcfc"/>
    </g>
    <g id="g">
      <rect width="49.26" height="49.26" rx="5" fill="none" stroke="#000" stroke-width="2"/>
      <rect x="1" y="1" width="47.26" height="47.26" rx="5" fill="#ccc"/>
      <rect x="6" y="4" width="37.26" height="37.26" rx="5" fill="#fcfcfc"/>
    </g>
  </defs>
  <use transform="rotate(20 122.4 24.63)" x="101.76330364210526" y="4.0" xlink:href="#d0"/>
  <use transform="rotate(-20 566.2 24.63)" x="545.5304481052631" y="4.0" xlink:href="#d1"/>
  <use transform="rotate(20 175.9 29.56)" x="155.30759553684211" y="8.92609574736842" xlink:href="#x"/>
  <use transform="rotate(-20 512.6 29.56)" x="491.98615621052625" y="8.92609574736842" xlink:href="#m"/>
  <use transform="rotate(15 51.55 36.07)" x="30.917180926315787" y="15.439567578947367" xlink:href="#f"/>
  <use transform="rotate(-15 637 36.07)" x="616.3765708210526" y="15.439567578947367" xlink:href="#e"/>
  <use transform="rotate(20 219.2 62.77)" x="198.55528094736843" y="42.14188505263158" xlink:href="#d"/>
  <use transform="rotate(-20 469.4 62.77)" x="448.73847079999996" y="42.14188505263158" xlink:href="#c"/>
  <use transform="rotate(20 104.6 73.5)" x="83.97825625263158" y="52.86401602105264" xlink:href="#b"/>
  <use transform="rotate(-20 583.9 73.5)" x="563.3154954947368" y="52.86401602105264" xlink:href="#a"/>
  <use transform="rotate(20 158.2 78.42)" x="137.52254814736844" y="57.79011204210527" xlink:href="#ah"/>
  <use transform="rotate(-20 530.4 78.42)" x="509.7712036" y="57.79011204210527" xlink:href="#ag"/>
  <use transform="rotate(20 266.2 85.7)" x="245.54718722105264" y="65.07051326315789" xlink:href="#af"/>
  <use transform="rotate(-20 422.4 85.7)" x="401.74656452631575" y="65.07051326315789" xlink:href="#ae"/>
  <use transform="rotate(15 38.09 86.3)" x="17.458590463157893" y="65.66771082105262" xlink:href="#ad"/>
  <use transform="rotate(-15 650.5 86.3)" x="629.8351612842105" y="65.66771082105262" xlink:href="#ac"/>
  <use transform="rotate(20 201.4 111.6)" x="180.77023355789473" y="91.00590134736842" xlink:href="#ab"/>
  <use transform="rotate(-20 487.2 111.6)" x="466.52351818947363" y="91.00590134736842" xlink:href="#aa"/>
  <use transform="rotate(20 86.82 122.4)" x="66.19320858947367" y="101.72803231578948" xlink:href="#z"/>
  <use transform="rotate(-20 601.7 122.4)" x="581.1005431578947" y="101.72803231578948" xlink:href="#y"/>
  <use transform="rotate(20 140.4 127.3)" x="119.73750075789474" y="106.6541283368421" xlink:href="#w"/>
  <use transform="rotate(-20 548.2 127.3)" x="527.5562509894736" y="106.6541283368421" xlink:href="#v"/>
  <use transform="rotate(20 248.4 134.6)" x="227.76213955789473" y="113.93452955789473" xlink:href="#u"/>
  <use transform="rotate(-20 440.2 134.6)" x="419.53161218947366" y="113.93452955789473" xlink:href="#t"/>
  <use transform="rotate(15 24.63 136.5)" x="4.0" y="115.89585378947369" xlink:href="#s"/>
  <use transform="rotate(-15 663.9 136.5)" x="643.2937517473684" y="115.89585378947369" xlink:href="#r"/>
  <use transform="rotate(20 183.6 160.5)" x="162.98518616842108" y="139.86991764210526" xlink:href="#q"/>
  <use transform="rotate(-20 504.9 160.5)" x="484.30856557894737" y="139.86991764210526" xlink:href="#p"/>
  <use transform="rotate(20 230.6 183.4)" x="209.97709216842105" y="162.7985458526316" xlink:href="#o"/>
  <use transform="rotate(-20 457.9 183.4)" x="437.3166595789473" y="162.7985458526316" xlink:href="#n"/>
  <use transform="rotate(20 194.8 225.7)" x="174.18951231578947" y="205.11017625263156" xlink:href="#l"/>
  <use transform="rotate(-20 493.7 225.7)" x="473.1042394315789" y="205.11017625263156" xlink:href="#k"/>
  <use transform="rotate(48 250.7 265.2)" x="230.01968644210527" y="244.56504242105265" xlink:href="#j"/>
  <use transform="rotate(-48 437.9 265.2)" x="417.2740653052631" y="244.56504242105265" xlink:href="#i"/>
  <use transform="rotate(76 284.1 324.8)" x="263.422572568421" y="304.2135294736842" xlink:href="#h"/>
  <use transform="rotate(-76 404.5 324.8)" x="383.8711791789473" y="304.2135294736842" xlink:href="#g"/>
</svg>
