<?xml version="1.0" encoding="UTF-8"?>
<svg xmlns="http://www.w3.org/2000/svg" xmlns:xlink="http://www.w3.org/1999/xlink" width="707" height="368" viewBox="-5 -6 707 368">
  <defs>
    <g id="d0">
      <rect x="0" y="0" width="49.26315789473684" height="49.26315789473684" rx="5" fill="none" stroke="black" stroke-width="2" />
      <rect x="1.0" y="1.0" width="47.26315789473684" height="47.26315789473684" rx="4.0" fill="#cccccc" />
      <rect x="6" y="4" width="37.26315789473684" height="37.26315789473684" rx="5" fill="#fbfbfb" />
    </g>
    <g id="d1">
      <rect x="0" y="0" width="49.26315789473684" height="49.26315789473684" rx="5" fill="none" stroke="black" stroke-width="2" />
      <rect x="1.0" y="1.0" width="47.26315789473684" height="47.26315789473684" rx="4.0" fill="#cccccc" />
      <rect x="6" y="4" width="37.26315789473684" height="37.26315789473684" rx="5" fill="#fbfbfb" />
    </g>
    <g id="d2">
      <rect x="0" y="0" width="49.26315789473684" height="49.26315789473684" rx="5" fill="none" stroke="black" stroke-width="2" />
      <rect x="1.0" y="1.0" width="47.26315789473684" height="47.26315789473684" rx="4.0" fill="#cccccc" />
      <rect x="6" y="4" width="37.26315789473684" height="37.26315789473684" rx="5" fill="#fbfbfb" />
    </g>
    <g id="d3">
      <rect x="0" y="0" width="49.26315789473684" height="49.26315789473684" rx="5" fill="none" stroke="black" stroke-width="2" />
      <rect x="1.0" y="1.0" width="47.26315789473684" height="47.26315789473684" rx="4.0" fill="#cccccc" />
      <rect x="6" y="4" width="37.26315789473684" height="37.26315789473684" rx="5" fill="#fbfbfb" />
    </g>
    <g id="d4">
      <rect x="0" y="0" width="49.26315789473684" height="49.26315789473684" rx="5" fill="none" stroke="black" stroke-width="2" />
      <rect x="1.0" y="1.0" width="47.26315789473684" height="47.26315789473684" rx="4.0" fill="#cccccc" />
      <rect x="6" y="4" width="37.26315789473684" height="37.26315789473684" rx="5" fill="#fbfbfb" />
    </g>
    <g id="d5">
      <rect x="0" y="0" width="49.26315789473684" height="49.26315789473684" rx="5" fill="none" stroke="black" stroke-width="2" />
      <rect x="1.0" y="1.0" width="47.26315789473684" height="47.26315789473684" rx="4.0" fill="#cccccc" />
      <rect x="6" y="4" width="37.26315789473684" height="37.26315789473684" rx="5" fill="#fbfbfb" />
    </g>
    <g id="d6">
      <rect x="0" y="0" width="49.26315789473684" height="49.26315789473684" rx="5" fill="none" stroke="black" stroke-width="2" />
      <rect x="1.0" y="1.0" width="47.26315789473684" height="47.26315789473684" rx="4.0" fill="#cccccc" />
      <rect x="6" y="4" width="37.26315789473684" height="37.26315789473684" rx="5" fill="#fbfbfb" />
    </g>
    <g id="d7">
      <rect x="0" y="0" width="49.26315789473684" height="49.26315789473684" rx="5" fill="none" stroke="black" stroke-width="2" />
      <rect x="1.0" y="1.0" width="47.26315789473684" height="47.26315789473684" rx="4.0" fill="#cccccc" />
      <rect x="6" y="4" width="37.26315789473684" height="37.26315789473684" rx="5" fill="#fbfbfb" />
    </g>
    <g id="d8">
      <rect x="0" y="0" width="49.26315789473684" height="49.26315789473684" rx="5" fill="none" stroke="black" stroke-width="2" />
      <rect x="1.0" y="1.0" width="47.26315789473684" height="47.26315789473684" rx="4.0" fill="#cccccc" />
      <rect x="6" y="4" width="37.26315789473684" height="37.26315789473684" rx="5" fill="#fbfbfb" />
    </g>
    <g id="d9">
      <rect x="0" y="0" width="49.26315789473684" height="49.26315789473684" rx="5" fill="none" stroke="black" stroke-width="2" />
      <rect x="1.0" y="1.0" width="47.26315789473684" height="47.26315789473684" rx="4.0" fill="#cccccc" />
      <rect x="6" y="4" width="37.26315789473684" height="37.26315789473684" rx="5" fill="#fbfbfb" />
    </g>
    <g id="d10">
      <rect x="0" y="0" width="49.26315789473684" height="49.26315789473684" rx="5" fill="none" stroke="black" stroke-width="2" />
      <rect x="1.0" y="1.0" width="47.26315789473684" height="47.26315789473684" rx="4.0" fill="#cccccc" />
      <rect x="6" y="4" width="37.26315789473684" height="37.26315789473684" rx="5" fill="#fbfbfb" />
    </g>
    <g id="d11">
      <rect x="0" y="0" width="49.26315789473684" height="49.26315789473684" rx="5" fill="none" stroke="black" stroke-width="2" />
      <rect x="1.0" y="1.0" width="47.26315789473684" height="47.26315789473684" rx="4.0" fill="#cccccc" />
      <rect x="6" y="4" width="37.26315789473684" height="37.26315789473684" rx="5" fill="#fbfbfb" />
    </g>
    <g id="d12">
      <rect x="0" y="0" width="49.26315789473684" height="49.26315789473684" rx="5" fill="none" stroke="black" stroke-width="2" />
      <rect x="1.0" y="1.0" width="47.26315789473684" height="47.26315789473684" rx="4.0" fill="#cccccc" />
      <rect x="6" y="4" width="37.26315789473684" height="37.26315789473684" rx="5" fill="#fbfbfb" />
    </g>
    <g id="d13">
      <rect x="0" y="0" width="49.26315789473684" height="49.26315789473684" rx="5" fill="none" stroke="black" stroke-width="2" />
      <rect x="1.0" y="1.0" width="47.26315789473684" height="47.26315789473684" rx="4.0" fill="#cccccc" />
      <rect x="6" y="4" width="37.26315789473684" height="37.26315789473684" rx="5" fill="#fbfbfb" />
    </g>
    <g id="d14">
      <rect x="0" y="0" width="49.26315789473684" height="49.26315789473684" rx="5" fill="none" stroke="black" stroke-width="2" />
      <rect x="1.0" y="1.0" width="47.26315789473684" height="47.26315789473684" rx="4.0" fill="#cccccc" />
      <rect x="6" y="4" width="37.26315789473684" height="37.26315789473684" rx="5" fill="#fbfbfb" />
    </g>
    <g id="d15">
      <rect x="0" y="0" width="49.26315789473684" height="49.26315789473684" rx="5" fill="none" stroke="black" stroke-width="2" />
      <rect x="1.0" y="1.0" width="47.26315789473684" height="47.26315789473684" rx="4.0" fill="#cccccc" />
      <rect x="6" y="4" width="37.26315789473684" height="37.26315789473684" rx="5" fill="#fbfbfb" />
    </g>
    <g id="d16">
      <rect x="0" y="0" width="49.26315789473684" height="49.26315789473684" rx="5" fill="none" stroke="black" stroke-width="2" />
      <rect x="1.0" y="1.0" width="47.26315789473684" height="47.26315789473684" rx="4.0" fill="#cccccc" />
      <rect x="6" y="4" width="37.26315789473684" height="37.26315789473684" rx="5" fill="#fbfbfb" />
    </g>
    <g id="d17">
      <rect x="0" y="0" width="49.26315789473684" height="49.26315789473684" rx="5" fill="none" stroke="black" stroke-width="2" />
      <rect x="1.0" y="1.0" width="47.26315789473684" height="47.26315789473684" rx="4.0" fill="#cccccc" />
      <rect x="6" y="4" width="37.26315789473684" height="37.26315789473684" rx="5" fill="#fbfbfb" />
    </g>
    <g id="d18">
      <rect x="0" y="0" width="49.26315789473684" height="49.26315789473684" rx="5" fill="none" stroke="black" stroke-width="2" />
      <rect x="1.0" y="1.0" width="47.26315789473684" height="47.26315789473684" rx="4.0" fill="#cccccc" />
      <rect x="6" y="4" width="37.26315789473684" height="37.26315789473684" rx="5" fill="#fbfbfb" />
    </g>
    <g id="d19">
      <rect x="0" y="0" width="49.26315789473684" height="49.26315789473684" rx="5" fill="none" stroke="black" stroke-width="2" />
      <rect x="1.0" y="1.0" width="47.26315789473684" height="47.26315789473684" rx="4.0" fill="#cccccc" />
      <rect x="6" y="4" width="37.26315789473684" height="37.26315789473684" rx="5" fill="#fbfbfb" />
    </g>
    <g id="d20">
      <rect x="0" y="0" width="49.26315789473684" height="49.26315789473684" rx="5" fill="none" stroke="black" stroke-width="2" />
      <rect x="1.0" y="1.0" width="47.26315789473684" height="47.26315789473684" rx="4.0" fill="#cccccc" />
      <rect x="6" y="4" width="37.26315789473684" height="37.26315789473684" rx="5" fill="#fbfbfb" />
    </g>
    <g id="d21">
      <rect x="0" y="0" width="49.26315789473684" height="49.26315789473684" rx="5" fill="none" stroke="black" stroke-width="2" />
      <rect x="1.0" y="1.0" width="47.26315789473684" height="47.26315789473684" rx="4.0" fill="#cccccc" />
      <rect x="6" y="4" width="37.26315789473684" height="37.26315789473684" rx="5" fill="#fbfbfb" />
    </g>
    <g id="d22">
      <rect x="0" y="0" width="49.26315789473684" height="49.26315789473684" rx="5" fill="none" stroke="black" stroke-width="2" />
      <rect x="1.0" y="1.0" width="47.26315789473684" height="47.26315789473684" rx="4.0" fill="#cccccc" />
      <rect x="6" y="4" width="37.26315789473684" height="37.26315789473684" rx="5" fill="#fbfbfb" />
    </g>
    <g id="d23">
      <rect x="0" y="0" width="49.26315789473684" height="49.26315789473684" rx="5" fill="none" stroke="black" stroke-width="2" />
      <rect x="1.0" y="1.0" width="47.26315789473684" height="47.26315789473684" rx="4.0" fill="#cccccc" />
      <rect x="6" y="4" width="37.26315789473684" height="37.26315789473684" rx="5" fill="#fbfbfb" />
    </g>
    <g id="d24">
      <rect x="0" y="0" width="49.26315789473684" height="49.26315789473684" rx="5" fill="none" stroke="black" stroke-width="2" />
      <rect x="1.0" y="1.0" width="47.26315789473684" height="47.26315789473684" rx="4.0" fill="#cccccc" />
      <rect x="6" y="4" width="37.26315789473684" height="37.26315789473684" rx="5" fill="#fbfbfb" />
    </g>
    <g id="d25">
      <rect x="0" y="0" width="49.26315789473684" height="49.26315789473684" rx="5" fill="none" stroke="black" stroke-width="2" />
      <rect x="1.0" y="1.0" width="47.26315789473684" height="47.26315789473684" rx="4.0" fill="#cccccc" />
      <rect x="6" y="4" width="37.26315789473684" height="37.26315789473684" rx="5" fill="#fbfbfb" />
    </g>
    <g id="d26">
      <rect x="0" y="0" width="49.26315789473684" height="49.26315789473684" rx="5" fill="none" stroke="black" stroke-width="2" />
      <rect x="1.0" y="1.0" width="47.26315789473684" height="47.26315789473684" rx="4.0" fill="#cccccc" />
      <rect x="6" y="4" width="37.26315789473684" height="37.26315789473684" rx="5" fill="#fbfbfb" />
    </g>
    <g id="d27">
      <rect x="0" y="0" width="49.26315789473684" height="49.26315789473684" rx="5" fill="none" stroke="black" stroke-width="2" />
      <rect x="1.0" y="1.0" width="47.26315789473684" height="47.26315789473684" rx="4.0" fill="#cccccc" />
      <rect x="6" y="4" width="37.26315789473684" height="37.26315789473684" rx="5" fill="#fbfbfb" />
    </g>
    <g id="d28">
      <rect x="0" y="0" width="49.26315789473684" height="49.26315789473684" rx="5" fill="none" stroke="black" stroke-width="2" />
      <rect x="1.0" y="1.0" width="47.26315789473684" height="47.26315789473684" rx="4.0" fill="#cccccc" />
      <rect x="6" y="4" width="37.26315789473684" height="37.26315789473684" rx="5" fill="#fbfbfb" />
    </g>
    <g id="d29">
      <rect x="0" y="0" width="49.26315789473684" height="49.26315789473684" rx="5" fill="none" stroke="black" stroke-width="2" />
      <rect x="1.0" y="1.0" width="47.26315789473684" height="47.26315789473684" rx="4.0" fill="#cccccc" />
      <rect x="6" y="4" width="37.26315789473684" height="37.26315789473684" rx="5" fill="#fbfbfb" />
    </g>
    <g id="d30">
      <rect x="0" y="0" width="49.26315789473684" height="49.26315789473684" rx="5" fill="none" stroke="black" stroke-width="2" />
      <rect x="1.0" y="1.0" width="47.26315789473684" height="47.26315789473684" rx="4.0" fill="#cccccc" />
      <rect x="6" y="4" width="37.26315789473684" height="37.26315789473684" rx="5" fill="#fbfbfb" />
    </g>
    <g id="d31">
      <rect x="0" y="0" width="49.26315789473684" height="49.26315789473684" rx="5" fill="none" stroke="black" stroke-width="2" />
      <rect x="1.0" y="1.0" width="47.26315789473684" height="47.26315789473684" rx="4.0" fill="#cccccc" />
      <rect x="6" y="4" width="37.26315789473684" height="37.26315789473684" rx="5" fill="#fbfbfb" />
    </g>
    <g id="d32">
      <rect x="0" y="0" width="49.26315789473684" height="49.26315789473684" rx="5" fill="none" stroke="black" stroke-width="2" />
      <rect x="1.0" y="1.0" width="47.26315789473684" height="47.26315789473684" rx="4.0" fill="#cccccc" />
      <rect x="6" y="4" width="37.26315789473684" height="37.26315789473684" rx="5" fill="#fbfbfb" />
    </g>
    <g id="d33">
      <rect x="0" y="0" width="49.26315789473684" height="49.26315789473684" rx="5" fill="none" stroke="black" stroke-width="2" />
      <rect x="1.0" y="1.0" width="47.26315789473684" height="47.26315789473684" rx="4.0" fill="#cccccc" />
      <rect x="6" y="4" width="37.26315789473684" height="37.26315789473684" rx="5" fill="#fbfbfb" />
    </g>
    <g id="d34">
      <rect x="0" y="0" width="49.26315789473684" height="49.26315789473684" rx="5" fill="none" stroke="black" stroke-width="2" />
      <rect x="1.0" y="1.0" width="47.26315789473684" height="47.26315789473684" rx="4.0" fill="#cccccc" />
      <rect x="6" y="4" width="37.26315789473684" height="37.26315789473684" rx="5" fill="#fbfbfb" />
    </g>
    <g id="d35">
      <rect x="0" y="0" width="49.26315789473684" height="49.26315789473684" rx="5" fill="none" stroke="black" stroke-width="2" />
      <rect x="1.0" y="1.0" width="47.26315789473684" height="47.26315789473684" rx="4.0" fill="#cccccc" />
      <rect x="6" y="4" width="37.26315789473684" height="37.26315789473684" rx="5" fill="#fbfbfb" />
    </g>
  </defs>
  <use xlink:href="#d0" x="101.76330364210526" y="4.0" transform="rotate(20 126.3948825894737 28.63157894736842)" />
  <use xlink:href="#d1" x="545.5304481052631" y="4.0" transform="rotate(-20 570.1620270526315 28.63157894736842)" />
  <use xlink:href="#d2" x="155.30759553684211" y="8.92609574736842" transform="rotate(20 179.93917448421053 33.55767469473683)" />
  <use xlink:href="#d3" x="491.98615621052625" y="8.92609574736842" transform="rotate(-20 516.6177351578947 33.55767469473683)" />
  <use xlink:href="#d4" x="30.917180926315787" y="15.439567578947367" transform="rotate(15 55.54875987368421 40.071146526315786)" />
  <use xlink:href="#d5" x="616.3765708210526" y="15.439567578947367" transform="rotate(-15 641.008149768421 40.071146526315786)" />
  <use xlink:href="#d6" x="198.55528094736843" y="42.14188505263158" transform="rotate(20 223.18685989473687 66.77346399999999)" />
  <use xlink:href="#d7" x="448.73847079999996" y="42.14188505263158" transform="rotate(-20 473.37004974736834 66.77346399999999)" />
  <use xlink:href="#d8" x="83.97825625263158" y="52.86401602105264" transform="rotate(20 108.60983519999999 77.49559496842106)" />
  <use xlink:href="#d9" x="563.3154954947368" y="52.86401602105264" transform="rotate(-20 587.9470744421052 77.49559496842106)" />
  <use xlink:href="#d10" x="137.52254814736844" y="57.79011204210527" transform="rotate(20 162.15412709473685 82.42169098947369)" />
  <use xlink:href="#d11" x="509.7712036" y="57.79011204210527" transform="rotate(-20 534.4027825473684 82.42169098947369)" />
  <use xlink:href="#d12" x="245.54718722105264" y="65.07051326315789" transform="rotate(20 270.1787661684211 89.7020922105263)" />
  <use xlink:href="#d13" x="401.74656452631575" y="65.07051326315789" transform="rotate(-20 426.37814347368413 89.7020922105263)" />
  <use xlink:href="#d14" x="17.458590463157893" y="65.66771082105262" transform="rotate(15 42.090169410526315 90.29928976842105)" />
  <use xlink:href="#d15" x="629.8351612842105" y="65.66771082105262" transform="rotate(-15 654.4667402315788 90.29928976842105)" />
  <use xlink:href="#d16" x="180.77023355789473" y="91.00590134736842" transform="rotate(20 205.40181250526314 115.63748029473683)" />
  <use xlink:href="#d17" x="466.52351818947363" y="91.00590134736842" transform="rotate(-20 491.155097136842 115.63748029473683)" />
  <use xlink:href="#d18" x="66.19320858947367" y="101.72803231578948" transform="rotate(20 90.8247875368421 126.35961126315789)" />
  <use xlink:href="#d19" x="581.1005431578947" y="101.72803231578948" transform="rotate(-20 605.7321221052631 126.35961126315789)" />
  <use xlink:href="#d20" x="119.73750075789474" y="106.6541283368421" transform="rotate(20 144.36907970526318 131.28570728421053)" />
  <use xlink:href="#d21" x="527.5562509894736" y="106.6541283368421" transform="rotate(-20 552.187829936842 131.28570728421053)" />
  <use xlink:href="#d22" x="227.76213955789473" y="113.93452955789473" transform="rotate(20 252.39371850526317 138.56610850526314)" />
  <use xlink:href="#d23" x="419.53161218947366" y="113.93452955789473" transform="rotate(-20 444.16319113684204 138.56610850526314)" />
  <use xlink:href="#d24" x="4.0" y="115.89585378947369" transform="rotate(15 28.63157894736842 140.52743273684212)" />
  <use xlink:href="#d25" x="643.2937517473684" y="115.89585378947369" transform="rotate(-15 667.9253306947368 140.52743273684212)" />
  <use xlink:href="#d26" x="162.98518616842108" y="139.86991764210526" transform="rotate(20 187.6167651157895 164.5014965894737)" />
  <use xlink:href="#d27" x="484.30856557894737" y="139.86991764210526" transform="rotate(-20 508.94014452631575 164.5014965894737)" />
  <use xlink:href="#d28" x="209.97709216842105" y="162.7985458526316" transform="rotate(20 234.60867111578946 187.43012480000002)" />
  <use xlink:href="#d29" x="437.3166595789473" y="162.7985458526316" transform="rotate(-20 461.94823852631566 187.43012480000002)" />
  <use xlink:href="#d30" x="174.18951231578947" y="205.11017625263156" transform="rotate(20 198.8210912631579 229.74175519999997)" />
  <use xlink:href="#d31" x="473.1042394315789" y="205.11017625263156" transform="rotate(-20 497.7358183789473 229.74175519999997)" />
  <use xlink:href="#d32" x="230.01968644210527" y="244.56504242105265" transform="rotate(48 254.6512653894737 269.19662136842106)" />
  <use xlink:href="#d33" x="417.2740653052631" y="244.56504242105265" transform="rotate(-48 441.9056442526315 269.19662136842106)" />
  <use xlink:href="#d34" x="263.422572568421" y="304.2135294736842" transform="rotate(76 288.05415151578944 328.84510842105266)" />
  <use xlink:href="#d35" x="383.8711791789473" y="304.2135294736842" transform="rotate(-76 408.5027581263157 328.84510842105266)" />
</svg>
