<?xml version="1.0" encoding="UTF-8"?>
<svg xmlns="http://www.w3.org/2000/svg" xmlns:xlink="http://www.w3.org/1999/xlink"
     width="1074.0" height="450.0" viewBox="0 0 1074.0 450.0">
<defs>
<g id="d0">
<rect x="0" y="0" width="52" height="52" rx="5" fill="none" stroke="black" stroke-width="2" />
<rect x="1" y="1" width="50" height="50" rx="5" fill="#777777" />
<rect x="6" y="4" width="40" height="40" rx="5" fill="#919191" />
<text x="7" y="5" font-size="12" text-anchor="start" dominant-baseline="hanging"><tspan x="7" dy="0em">0,0</tspan></text>
</g>
<g id="d1">
<rect x="0" y="0" width="52" height="52" rx="5" fill="none" stroke="black" stroke-width="2" />
<rect x="1" y="1" width="50" height="50" rx="5" fill="#cccccc" />
<rect x="6" y="4" width="40" height="40" rx="5" fill="#fbfbfb" />
<text x="7" y="5" font-size="12" text-anchor="start" dominant-baseline="hanging"><tspan x="7" dy="0em">0,3</tspan></text>
</g>
<g id="d2">
<rect x="0" y="0" width="52" height="52" rx="5" fill="none" stroke="black" stroke-width="2" />
<rect x="1" y="1" width="50" height="50" rx="5" fill="#cccccc" />
<rect x="6" y="4" width="40" height="40" rx="5" fill="#fbfbfb" />
<text x="7" y="5" font-size="12" text-anchor="start" dominant-baseline="hanging"><tspan x="7" dy="0em">0,2</tspan></text>
</g>
<g id="d3">
<rect x="0" y="0" width="52" height="52" rx="5" fill="none" stroke="black" stroke-width="2" />
<rect x="1" y="1" width="50" height="50" rx="5" fill="#cccccc" />
<rect x="6" y="4" width="40" height="40" rx="5" fill="#fbfbfb" />
<text x="7" y="5" font-size="12" text-anchor="start" dominant-baseline="hanging"><tspan x="7" dy="0em">0,1</tspan></text>
</g>
<g id="d4">
<rect x="0" y="0" width="52" height="52" rx="5" fill="none" stroke="black" stroke-width="2" />
<rect x="1" y="1" width="50" height="50" rx="5" fill="#cccccc" />
<rect x="6" y="4" width="40" height="40" rx="5" fill="#fbfbfb" />
<text x="7" y="5" font-size="12" text-anchor="start" dominant-baseline="hanging"><tspan x="7" dy="0em">0,4</tspan></text>
</g>
<g id="d5">
<rect x="0" y="0" width="52" height="52" rx="5" fill="none" stroke="black" stroke-width="2" />
<rect x="1" y="1" width="50" height="50" rx="5" fill="#cccccc" />
<rect x="6" y="4" width="40" height="40" rx="5" fill="#fbfbfb" />
<text x="7" y="5" font-size="12" text-anchor="start" dominant-baseline="hanging"><tspan x="7" dy="0em">0,5</tspan></text>
</g>
<g id="d6">
<rect x="0" y="0" width="52" height="52" rx="5" fill="none" stroke="black" stroke-width="2" />
<rect x="1" y="1" width="50" height="50" rx="5" fill="#cccccc" />
<rect x="6" y="4" width="40" height="40" rx="5" fill="#fbfbfb" />
<text x="7" y="5" font-size="12" text-anchor="start" dominant-baseline="hanging"><tspan x="7" dy="0em">0,6</tspan></text>
</g>
<g id="d7">
<rect x="0" y="0" width="52" height="52" rx="5" fill="none" stroke="black" stroke-width="2" />
<rect x="1" y="1" width="50" height="50" rx="5" fill="#cccccc" />
<rect x="6" y="4" width="40" height="40" rx="5" fill="#fbfbfb" />
<text x="7" y="5" font-size="12" text-anchor="start" dominant-baseline="hanging"><tspan x="7" dy="0em">0,7</tspan></text>
</g>
<g id="d8">
<rect x="0" y="0" width="52" height="52" rx="5" fill="none" stroke="black" stroke-width="2" />
<rect x="1" y="1" width="50" height="50" rx="5" fill="#cccccc" />
<rect x="6" y="4" width="40" height="40" rx="5" fill="#fbfbfb" />
<text x="7" y="5" font-size="12" text-anchor="start" dominant-baseline="hanging"><tspan x="7" dy="0em">0,8</tspan></text>
</g>
<g id="d9">
<rect x="0" y="0" width="52" height="52" rx="5" fill="none" stroke="black" stroke-width="2" />
<rect x="1" y="1" width="50" height="50" rx="5" fill="#cccccc" />
<rect x="6" y="4" width="40" height="40" rx="5" fill="#fbfbfb" />
<text x="7" y="5" font-size="12" text-anchor="start" dominant-baseline="hanging"><tspan x="7" dy="0em">0,9</tspan></text>
</g>
<g id="d10">
<rect x="0" y="0" width="52" height="52" rx="5" fill="none" stroke="black" stroke-width="2" />
<rect x="1" y="1" width="50" height="50" rx="5" fill="#cccccc" />
<rect x="6" y="4" width="40" height="40" rx="5" fill="#fbfbfb" />
<text x="7" y="5" font-size="12" text-anchor="start" dominant-baseline="hanging"><tspan x="7" dy="0em">0,12</tspan></text>
</g>
<g id="d11">
<rect x="0" y="0" width="52" height="52" rx="5" fill="none" stroke="black" stroke-width="2" />
<rect x="1" y="1" width="50" height="50" rx="5" fill="#cccccc" />
<rect x="6" y="4" width="40" height="40" rx="5" fill="#fbfbfb" />
<text x="7" y="5" font-size="12" text-anchor="start" dominant-baseline="hanging"><tspan x="7" dy="0em">0,11</tspan></text>
</g>
<g id="d12">
<rect x="0" y="0" width="52" height="52" rx="5" fill="none" stroke="black" stroke-width="2" />
<rect x="1" y="1" width="50" height="50" rx="5" fill="#cccccc" />
<rect x="6" y="4" width="40" height="40" rx="5" fill="#fbfbfb" />
<text x="7" y="5" font-size="12" text-anchor="start" dominant-baseline="hanging"><tspan x="7" dy="0em">0,10</tspan></text>
</g>
<g id="d13">
<rect x="0" y="0" width="104" height="52" rx="5" fill="none" stroke="black" stroke-width="2" />
<rect x="1" y="1" width="102" height="50" rx="5" fill="#aaaaaa" />
<rect x="6" y="4" width="92" height="40" rx="5" fill="#d0d0d0" />
<text x="7" y="5" font-size="12" text-anchor="start" dominant-baseline="hanging"><tspan x="7" dy="0em">0,13</tspan></text>
<text x="97" y="42" font-size="12" text-anchor="end" dominant-baseline="auto"><tspan x="97" dy="0em">0,0</tspan></text>
</g>
<g id="d14">
<rect x="0" y="0" width="78.0" height="52" rx="5" fill="none" stroke="black" stroke-width="2" />
<rect x="1" y="1" width="76.0" height="50" rx="5" fill="#aaaaaa" />
<rect x="6" y="4" width="66.0" height="40" rx="5" fill="#d0d0d0" />
<text x="7" y="5" font-size="12" text-anchor="start" dominant-baseline="hanging"><tspan x="7" dy="0em">1,0</tspan></text>
</g>
<g id="d15">
<rect x="0" y="0" width="52" height="52" rx="5" fill="none" stroke="black" stroke-width="2" />
<rect x="1" y="1" width="50" height="50" rx="5" fill="#cccccc" />
<rect x="6" y="4" width="40" height="40" rx="5" fill="#fbfbfb" />
<text x="7" y="5" font-size="12" text-anchor="start" dominant-baseline="hanging"><tspan x="7" dy="0em">1,1</tspan></text>
</g>
<g id="d16">
<rect x="0" y="0" width="52" height="52" rx="5" fill="none" stroke="black" stroke-width="2" />
<rect x="1" y="1" width="50" height="50" rx="5" fill="#cccccc" />
<rect x="6" y="4" width="40" height="40" rx="5" fill="#fbfbfb" />
<text x="7" y="5" font-size="12" text-anchor="start" dominant-baseline="hanging"><tspan x="7" dy="0em">1,2</tspan></text>
</g>
<g id="d17">
<rect x="0" y="0" width="52" height="52" rx="5" fill="none" stroke="black" stroke-width="2" />
<rect x="1" y="1" width="50" height="50" rx="5" fill="#cccccc" />
<rect x="6" y="4" width="40" height="40" rx="5" fill="#fbfbfb" />
<text x="7" y="5" font-size="12" text-anchor="start" dominant-baseline="hanging"><tspan x="7" dy="0em">1,3</tspan></text>
</g>
<g id="d18">
<rect x="0" y="0" width="52" height="52" rx="5" fill="none" stroke="black" stroke-width="2" />
<rect x="1" y="1" width="50" height="50" rx="5" fill="#cccccc" />
<rect x="6" y="4" width="40" height="40" rx="5" fill="#fbfbfb" />
<text x="7" y="5" font-size="12" text-anchor="start" dominant-baseline="hanging"><tspan x="7" dy="0em">1,4</tspan></text>
</g>
<g id="d19">
<rect x="0" y="0" width="52" height="52" rx="5" fill="none" stroke="black" stroke-width="2" />
<rect x="1" y="1" width="50" height="50" rx="5" fill="#cccccc" />
<rect x="6" y="4" width="40" height="40" rx="5" fill="#fbfbfb" />
<text x="7" y="5" font-size="12" text-anchor="start" dominant-baseline="hanging"><tspan x="7" dy="0em">1,5</tspan></text>
</g>
<g id="d20">
<rect x="0" y="0" width="52" height="52" rx="5" fill="none" stroke="black" stroke-width="2" />
<rect x="1" y="1" width="50" height="50" rx="5" fill="#cccccc" />
<rect x="6" y="4" width="40" height="40" rx="5" fill="#fbfbfb" />
<text x="7" y="5" font-size="12" text-anchor="start" dominant-baseline="hanging"><tspan x="7" dy="0em">1,6</tspan></text>
</g>
<g id="d21">
<rect x="0" y="0" width="52" height="52" rx="5" fill="none" stroke="black" stroke-width="2" />
<rect x="1" y="1" width="50" height="50" rx="5" fill="#cccccc" />
<rect x="6" y="4" width="40" height="40" rx="5" fill="#fbfbfb" />
<text x="7" y="5" font-size="12" text-anchor="start" dominant-baseline="hanging"><tspan x="7" dy="0em">1,7</tspan></text>
</g>
<g id="d22">
<rect x="0" y="0" width="52" height="52" rx="5" fill="none" stroke="black" stroke-width="2" />
<rect x="1" y="1" width="50" height="50" rx="5" fill="#cccccc" />
<rect x="6" y="4" width="40" height="40" rx="5" fill="#fbfbfb" />
<text x="7" y="5" font-size="12" text-anchor="start" dominant-baseline="hanging"><tspan x="7" dy="0em">1,8</tspan></text>
</g>
<g id="d23">
<rect x="0" y="0" width="52" height="52" rx="5" fill="none" stroke="black" stroke-width="2" />
<rect x="1" y="1" width="50" height="50" rx="5" fill="#cccccc" />
<rect x="6" y="4" width="40" height="40" rx="5" fill="#fbfbfb" />
<text x="7" y="5" font-size="12" text-anchor="start" dominant-baseline="hanging"><tspan x="7" dy="0em">1,9</tspan></text>
</g>
<g id="d24">
<rect x="0" y="0" width="52" height="52" rx="5" fill="none" stroke="black" stroke-width="2" />
<rect x="1" y="1" width="50" height="50" rx="5" fill="#cccccc" />
<rect x="6" y="4" width="40" height="40" rx="5" fill="#fbfbfb" />
<text x="7" y="5" font-size="12" text-anchor="start" dominant-baseline="hanging"><tspan x="7" dy="0em">1,10</tspan></text>
</g>
<g id="d25">
<rect x="0" y="0" width="52" height="52" rx="5" fill="none" stroke="black" stroke-width="2" />
<rect x="1" y="1" width="50" height="50" rx="5" fill="#cccccc" />
<rect x="6" y="4" width="40" height="40" rx="5" fill="#fbfbfb" />
<text x="7" y="5" font-size="12" text-anchor="start" dominant-baseline="hanging"><tspan x="7" dy="0em">1,11</tspan></text>
</g>
<g id="d26">
<rect x="0" y="0" width="52" height="52" rx="5" fill="none" stroke="black" stroke-width="2" />
<rect x="1" y="1" width="50" height="50" rx="5" fill="#cccccc" />
<rect x="6" y="4" width="40" height="40" rx="5" fill="#fbfbfb" />
<text x="7" y="5" font-size="12" text-anchor="start" dominant-baseline="hanging"><tspan x="7" dy="0em">1,12</tspan></text>
</g>
<g id="d27">
<rect x="0" y="0" width="78.0" height="52" rx="5" fill="none" stroke="black" stroke-width="2" />
<rect x="1" y="1" width="76.0" height="50" rx="5" fill="#cccccc" />
<rect x="6" y="4" width="66.0" height="40" rx="5" fill="#fbfbfb" />
<text x="7" y="5" font-size="12" text-anchor="start" dominant-baseline="hanging"><tspan x="7" dy="0em">1,13</tspan></text>
<text x="71.0" y="42" font-size="12" text-anchor="end" dominant-baseline="auto"><tspan x="71.0" dy="0em">1,0</tspan></text>
</g>
<g id="d28">
<rect x="0" y="0" width="91.0" height="52" rx="5" fill="none" stroke="black" stroke-width="2" />
<rect x="1" y="1" width="89.0" height="50" rx="5" fill="#aaaaaa" />
<rect x="6" y="4" width="79.0" height="40" rx="5" fill="#d0d0d0" />
<text x="7" y="5" font-size="12" text-anchor="start" dominant-baseline="hanging"><tspan x="7" dy="0em">2,0</tspan></text>
</g>
<g id="d29">
<rect x="0" y="0" width="52" height="52" rx="5" fill="none" stroke="black" stroke-width="2" />
<rect x="1" y="1" width="50" height="50" rx="5" fill="#cccccc" />
<rect x="6" y="4" width="40" height="40" rx="5" fill="#fbfbfb" />
<text x="7" y="5" font-size="12" text-anchor="start" dominant-baseline="hanging"><tspan x="7" dy="0em">2,1</tspan></text>
</g>
<g id="d30">
<rect x="0" y="0" width="52" height="52" rx="5" fill="none" stroke="black" stroke-width="2" />
<rect x="1" y="1" width="50" height="50" rx="5" fill="#cccccc" />
<rect x="6" y="4" width="40" height="40" rx="5" fill="#fbfbfb" />
<text x="7" y="5" font-size="12" text-anchor="start" dominant-baseline="hanging"><tspan x="7" dy="0em">2,2</tspan></text>
</g>
<g id="d31">
<rect x="0" y="0" width="52" height="52" rx="5" fill="none" stroke="black" stroke-width="2" />
<rect x="1" y="1" width="50" height="50" rx="5" fill="#cccccc" />
<rect x="6" y="4" width="40" height="40" rx="5" fill="#fbfbfb" />
<text x="7" y="5" font-size="12" text-anchor="start" dominant-baseline="hanging"><tspan x="7" dy="0em">2,3</tspan></text>
</g>
<g id="d32">
<rect x="0" y="0" width="52" height="52" rx="5" fill="none" stroke="black" stroke-width="2" />
<rect x="1" y="1" width="50" height="50" rx="5" fill="#cccccc" />
<rect x="6" y="4" width="40" height="40" rx="5" fill="#fbfbfb" />
<text x="7" y="5" font-size="12" text-anchor="start" dominant-baseline="hanging"><tspan x="7" dy="0em">2,4</tspan></text>
</g>
<g id="d33">
<rect x="0" y="0" width="52" height="52" rx="5" fill="none" stroke="black" stroke-width="2" />
<rect x="1" y="1" width="50" height="50" rx="5" fill="#cccccc" />
<rect x="6" y="4" width="40" height="40" rx="5" fill="#fbfbfb" />
<text x="7" y="5" font-size="12" text-anchor="start" dominant-baseline="hanging"><tspan x="7" dy="0em">2,5</tspan></text>
</g>
<g id="d34">
<rect x="0" y="0" width="52" height="52" rx="5" fill="none" stroke="black" stroke-width="2" />
<rect x="1" y="1" width="50" height="50" rx="5" fill="#cccccc" />
<rect x="6" y="4" width="40" height="40" rx="5" fill="#fbfbfb" />
<text x="7" y="5" font-size="12" text-anchor="start" dominant-baseline="hanging"><tspan x="7" dy="0em">2,6</tspan></text>
</g>
<g id="d35">
<rect x="0" y="0" width="52" height="52" rx="5" fill="none" stroke="black" stroke-width="2" />
<rect x="1" y="1" width="50" height="50" rx="5" fill="#cccccc" />
<rect x="6" y="4" width="40" height="40" rx="5" fill="#fbfbfb" />
<text x="7" y="5" font-size="12" text-anchor="start" dominant-baseline="hanging"><tspan x="7" dy="0em">2,7</tspan></text>
</g>
<g id="d36">
<rect x="0" y="0" width="52" height="52" rx="5" fill="none" stroke="black" stroke-width="2" />
<rect x="1" y="1" width="50" height="50" rx="5" fill="#cccccc" />
<rect x="6" y="4" width="40" height="40" rx="5" fill="#fbfbfb" />
<text x="7" y="5" font-size="12" text-anchor="start" dominant-baseline="hanging"><tspan x="7" dy="0em">2,8</tspan></text>
</g>
<g id="d37">
<rect x="0" y="0" width="52" height="52" rx="5" fill="none" stroke="black" stroke-width="2" />
<rect x="1" y="1" width="50" height="50" rx="5" fill="#cccccc" />
<rect x="6" y="4" width="40" height="40" rx="5" fill="#fbfbfb" />
<text x="7" y="5" font-size="12" text-anchor="start" dominant-baseline="hanging"><tspan x="7" dy="0em">2,9</tspan></text>
</g>
<g id="d38">
<rect x="0" y="0" width="52" height="52" rx="5" fill="none" stroke="black" stroke-width="2" />
<rect x="1" y="1" width="50" height="50" rx="5" fill="#cccccc" />
<rect x="6" y="4" width="40" height="40" rx="5" fill="#fbfbfb" />
<text x="7" y="5" font-size="12" text-anchor="start" dominant-baseline="hanging"><tspan x="7" dy="0em">2,10</tspan></text>
</g>
<g id="d39">
<rect x="0" y="0" width="52" height="52" rx="5" fill="none" stroke="black" stroke-width="2" />
<rect x="1" y="1" width="50" height="50" rx="5" fill="#cccccc" />
<rect x="6" y="4" width="40" height="40" rx="5" fill="#fbfbfb" />
<text x="7" y="5" font-size="12" text-anchor="start" dominant-baseline="hanging"><tspan x="7" dy="0em">2,11</tspan></text>
</g>
<g id="d40">
<rect x="0" y="0" width="117.0" height="52" rx="5" fill="none" stroke="black" stroke-width="2" />
<rect x="1" y="1" width="115.0" height="50" rx="5" fill="#777777" />
<rect x="6" y="4" width="105.0" height="40" rx="5" fill="#919191" />
<text x="7" y="5" font-size="12" text-anchor="start" dominant-baseline="hanging"><tspan x="7" dy="0em">2,12</tspan></text>
<text x="110.0" y="42" font-size="12" text-anchor="end" dominant-baseline="auto"><tspan x="110.0" dy="0em">1,0</tspan></text>
</g>
<g id="d41">
<rect x="0" y="0" width="117.0" height="52" rx="5" fill="none" stroke="black" stroke-width="2" />
<rect x="1" y="1" width="115.0" height="50" rx="5" fill="#aaaaaa" />
<rect x="6" y="4" width="105.0" height="40" rx="5" fill="#d0d0d0" />
<text x="7" y="5" font-size="12" text-anchor="start" dominant-baseline="hanging"><tspan x="7" dy="0em">3,0</tspan></text>
<text x="110.0" y="42" font-size="12" text-anchor="end" dominant-baseline="auto"><tspan x="110.0" dy="0em">2,0</tspan></text>
</g>
<g id="d42">
<rect x="0" y="0" width="52" height="52" rx="5" fill="none" stroke="black" stroke-width="2" />
<rect x="1" y="1" width="50" height="50" rx="5" fill="#cccccc" />
<rect x="6" y="4" width="40" height="40" rx="5" fill="#fbfbfb" />
<text x="7" y="5" font-size="12" text-anchor="start" dominant-baseline="hanging"><tspan x="7" dy="0em">3,2</tspan></text>
</g>
<g id="d43">
<rect x="0" y="0" width="52" height="52" rx="5" fill="none" stroke="black" stroke-width="2" />
<rect x="1" y="1" width="50" height="50" rx="5" fill="#cccccc" />
<rect x="6" y="4" width="40" height="40" rx="5" fill="#fbfbfb" />
<text x="7" y="5" font-size="12" text-anchor="start" dominant-baseline="hanging"><tspan x="7" dy="0em">3,3</tspan></text>
</g>
<g id="d44">
<rect x="0" y="0" width="52" height="52" rx="5" fill="none" stroke="black" stroke-width="2" />
<rect x="1" y="1" width="50" height="50" rx="5" fill="#cccccc" />
<rect x="6" y="4" width="40" height="40" rx="5" fill="#fbfbfb" />
<text x="7" y="5" font-size="12" text-anchor="start" dominant-baseline="hanging"><tspan x="7" dy="0em">3,4</tspan></text>
</g>
<g id="d45">
<rect x="0" y="0" width="52" height="52" rx="5" fill="none" stroke="black" stroke-width="2" />
<rect x="1" y="1" width="50" height="50" rx="5" fill="#cccccc" />
<rect x="6" y="4" width="40" height="40" rx="5" fill="#fbfbfb" />
<text x="7" y="5" font-size="12" text-anchor="start" dominant-baseline="hanging"><tspan x="7" dy="0em">3,5</tspan></text>
</g>
<g id="d46">
<rect x="0" y="0" width="52" height="52" rx="5" fill="none" stroke="black" stroke-width="2" />
<rect x="1" y="1" width="50" height="50" rx="5" fill="#cccccc" />
<rect x="6" y="4" width="40" height="40" rx="5" fill="#fbfbfb" />
<text x="7" y="5" font-size="12" text-anchor="start" dominant-baseline="hanging"><tspan x="7" dy="0em">3,6</tspan></text>
</g>
<g id="d47">
<rect x="0" y="0" width="52" height="52" rx="5" fill="none" stroke="black" stroke-width="2" />
<rect x="1" y="1" width="50" height="50" rx="5" fill="#cccccc" />
<rect x="6" y="4" width="40" height="40" rx="5" fill="#fbfbfb" />
<text x="7" y="5" font-size="12" text-anchor="start" dominant-baseline="hanging"><tspan x="7" dy="0em">3,7</tspan></text>
</g>
<g id="d48">
<rect x="0" y="0" width="52" height="52" rx="5" fill="none" stroke="black" stroke-width="2" />
<rect x="1" y="1" width="50" height="50" rx="5" fill="#cccccc" />
<rect x="6" y="4" width="40" height="40" rx="5" fill="#fbfbfb" />
<text x="7" y="5" font-size="12" text-anchor="start" dominant-baseline="hanging"><tspan x="7" dy="0em">3,8</tspan></text>
</g>
<g id="d49">
<rect x="0" y="0" width="52" height="52" rx="5" fill="none" stroke="black" stroke-width="2" />
<rect x="1" y="1" width="50" height="50" rx="5" fill="#cccccc" />
<rect x="6" y="4" width="40" height="40" rx="5" fill="#fbfbfb" />
<text x="7" y="5" font-size="12" text-anchor="start" dominant-baseline="hanging"><tspan x="7" dy="0em">3,9</tspan></text>
</g>
<g id="d50">
<rect x="0" y="0" width="52" height="52" rx="5" fill="none" stroke="black" stroke-width="2" />
<rect x="1" y="1" width="50" height="50" rx="5" fill="#cccccc" />
<rect x="6" y="4" width="40" height="40" rx="5" fill="#fbfbfb" />
<text x="7" y="5" font-size="12" text-anchor="start" dominant-baseline="hanging"><tspan x="7" dy="0em">3,10</tspan></text>
</g>
<g id="d51">
<rect x="0" y="0" width="52" height="52" rx="5" fill="none" stroke="black" stroke-width="2" />
<rect x="1" y="1" width="50" height="50" rx="5" fill="#cccccc" />
<rect x="6" y="4" width="40" height="40" rx="5" fill="#fbfbfb" />
<text x="7" y="5" font-size="12" text-anchor="start" dominant-baseline="hanging"><tspan x="7" dy="0em">3,11</tspan></text>
</g>
<g id="d52">
<rect x="0" y="0" width="143.0" height="52" rx="5" fill="none" stroke="black" stroke-width="2" />
<rect x="1" y="1" width="141.0" height="50" rx="5" fill="#aaaaaa" />
<rect x="6" y="4" width="131.0" height="40" rx="5" fill="#d0d0d0" />
<text x="7" y="5" font-size="12" text-anchor="start" dominant-baseline="hanging"><tspan x="7" dy="0em">3,12</tspan></text>
<text x="136.0" y="42" font-size="12" text-anchor="end" dominant-baseline="auto"><tspan x="136.0" dy="0em">3,0</tspan></text>
</g>
<g id="d53">
<rect x="0" y="0" width="65.0" height="52" rx="5" fill="none" stroke="black" stroke-width="2" />
<rect x="1" y="1" width="63.0" height="50" rx="5" fill="#aaaaaa" />
<rect x="6" y="4" width="53.0" height="40" rx="5" fill="#d0d0d0" />
<text x="7" y="5" font-size="12" text-anchor="start" dominant-baseline="hanging"><tspan x="7" dy="0em">4,0</tspan></text>
<text x="58.0" y="42" font-size="12" text-anchor="end" dominant-baseline="auto"><tspan x="58.0" dy="0em">4,0</tspan></text>
</g>
<g id="d54">
<rect x="0" y="0" width="65.0" height="52" rx="5" fill="none" stroke="black" stroke-width="2" />
<rect x="1" y="1" width="63.0" height="50" rx="5" fill="#aaaaaa" />
<rect x="6" y="4" width="53.0" height="40" rx="5" fill="#d0d0d0" />
<text x="7" y="5" font-size="12" text-anchor="start" dominant-baseline="hanging"><tspan x="7" dy="0em">4,1</tspan></text>
<text x="58.0" y="42" font-size="12" text-anchor="end" dominant-baseline="auto"><tspan x="58.0" dy="0em">4,0</tspan></text>
</g>
<g id="d55">
<rect x="0" y="0" width="65.0" height="52" rx="5" fill="none" stroke="black" stroke-width="2" />
<rect x="1" y="1" width="63.0" height="50" rx="5" fill="#aaaaaa" />
<rect x="6" y="4" width="53.0" height="40" rx="5" fill="#d0d0d0" />
<text x="7" y="5" font-size="12" text-anchor="start" dominant-baseline="hanging"><tspan x="7" dy="0em">4,2</tspan></text>
<text x="58.0" y="42" font-size="12" text-anchor="end" dominant-baseline="auto"><tspan x="58.0" dy="0em">4,0</tspan></text>
</g>
<g id="d56">
<rect x="0" y="0" width="325.0" height="52" rx="5" fill="none" stroke="black" stroke-width="2" />
<rect x="1" y="1" width="323.0" height="50" rx="5" fill="#cccccc" />
<rect x="6" y="4" width="313.0" height="40" rx="5" fill="#fbfbfb" />
<text x="7" y="5" font-size="12" text-anchor="start" dominant-baseline="hanging"><tspan x="7" dy="0em">4,3</tspan></text>
<text x="318.0" y="42" font-size="12" text-anchor="end" dominant-baseline="auto"><tspan x="318.0" dy="0em">4,0</tspan></text>
</g>
<g id="d57">
<rect x="0" y="0" width="65.0" height="52" rx="5" fill="none" stroke="black" stroke-width="2" />
<rect x="1" y="1" width="63.0" height="50" rx="5" fill="#aaaaaa" />
<rect x="6" y="4" width="53.0" height="40" rx="5" fill="#d0d0d0" />
<text x="7" y="5" font-size="12" text-anchor="start" dominant-baseline="hanging"><tspan x="7" dy="0em">4,10</tspan></text>
<text x="58.0" y="42" font-size="12" text-anchor="end" dominant-baseline="auto"><tspan x="58.0" dy="0em">4,0</tspan></text>
</g>
<g id="d58">
<rect x="0" y="0" width="65.0" height="52" rx="5" fill="none" stroke="black" stroke-width="2" />
<rect x="1" y="1" width="63.0" height="50" rx="5" fill="#aaaaaa" />
<rect x="6" y="4" width="53.0" height="40" rx="5" fill="#d0d0d0" />
<text x="7" y="5" font-size="12" text-anchor="start" dominant-baseline="hanging"><tspan x="7" dy="0em">4,11</tspan></text>
<text x="58.0" y="42" font-size="12" text-anchor="end" dominant-baseline="auto"><tspan x="58.0" dy="0em">4,0</tspan></text>
</g>
<g id="d59">
<rect x="0" y="0" width="65.0" height="52" rx="5" fill="none" stroke="black" stroke-width="2" />
<rect x="1" y="1" width="63.0" height="50" rx="5" fill="#aaaaaa" />
<rect x="6" y="4" width="53.0" height="40" rx="5" fill="#d0d0d0" />
<text x="7" y="5" font-size="12" text-anchor="start" dominant-baseline="hanging"><tspan x="7" dy="0em">4,12</tspan></text>
<text x="58.0" y="42" font-size="12" text-anchor="end" dominant-baseline="auto"><tspan x="58.0" dy="0em">4,0</tspan></text>
</g>
<g id="d60">
<rect x="0" y="0" width="65.0" height="52" rx="5" fill="none" stroke="black" stroke-width="2" />
<rect x="1" y="1" width="63.0" height="50" rx="5" fill="#aaaaaa" />
<rect x="6" y="4" width="53.0" height="40" rx="5" fill="#d0d0d0" />
<text x="7" y="5" font-size="12" text-anchor="start" dominant-baseline="hanging"><tspan x="7" dy="0em">4,13</tspan></text>
<text x="58.0" y="42" font-size="12" text-anchor="end" dominant-baseline="auto"><tspan x="58.0" dy="0em">4,0</tspan></text>
</g>
<g id="d61">
<rect x="0" y="0" width="52" height="52" rx="5" fill="none" stroke="black" stroke-width="2" />
<rect x="1" y="1" width="50" height="50" rx="5" fill="#cccccc" />
<rect x="6" y="4" width="40" height="40" rx="5" fill="#fbfbfb" />
<text x="7" y="5" font-size="12" text-anchor="start" dominant-baseline="hanging"><tspan x="7" dy="0em">0,13</tspan></text>
<text x="45" y="42" font-size="12" text-anchor="end" dominant-baseline="auto"><tspan x="45" dy="0em">0,1</tspan></text>
</g>
<g id="d62">
<rect x="0" y="0" width="52" height="52" rx="5" fill="none" stroke="black" stroke-width="2" />
<rect x="1" y="1" width="50" height="50" rx="5" fill="#cccccc" />
<rect x="6" y="4" width="40" height="40" rx="5" fill="#fbfbfb" />
<text x="7" y="5" font-size="12" text-anchor="start" dominant-baseline="hanging"><tspan x="7" dy="0em">2,13</tspan></text>
<text x="45" y="42" font-size="12" text-anchor="end" dominant-baseline="auto"><tspan x="45" dy="0em">0,1</tspan></text>
</g>
<g id="d63">
<rect x="0" y="0" width="65.0" height="104" rx="5" fill="none" stroke="black" stroke-width="2" />
<rect x="-13.0" y="0" width="78.0" height="52" rx="5" fill="none" stroke="black" stroke-width="2" />
<rect x="1" y="1" width="63.0" height="102" rx="5" fill="#777777" />
<rect x="-12.0" y="1" width="76.0" height="50" rx="5" fill="#777777" />
<rect x="6" y="4" width="53.0" height="92" rx="5" fill="#919191" />
<rect x="-7.0" y="4" width="66.0" height="40" rx="5" fill="#919191" />
<text x="7" y="5" font-size="12" text-anchor="start" dominant-baseline="hanging"><tspan x="7" dy="0em">1,13</tspan></text>
<text x="58.0" y="94" font-size="12" text-anchor="end" dominant-baseline="auto"><tspan x="58.0" dy="0em">1,1</tspan></text>
</g>
<g id="d64">
<rect x="0" y="0" width="52" height="52" rx="5" fill="none" stroke="black" stroke-width="2" />
<rect x="1" y="1" width="50" height="50" rx="5" fill="#cccccc" />
<rect x="6" y="4" width="40" height="40" rx="5" fill="#fbfbfb" />
<text x="7" y="5" font-size="12" text-anchor="start" dominant-baseline="hanging"><tspan x="7" dy="0em">2,12</tspan></text>
<text x="45" y="42" font-size="12" text-anchor="end" dominant-baseline="auto"><tspan x="45" dy="0em">1,1</tspan></text>
</g>
<g id="d65">
<rect x="0" y="0" width="65.0" height="52" rx="5" fill="none" stroke="black" stroke-width="2" />
<rect x="1" y="1" width="63.0" height="50" rx="5" fill="#aaaaaa" />
<rect x="6" y="4" width="53.0" height="40" rx="5" fill="#d0d0d0" />
<text x="7" y="5" font-size="12" text-anchor="start" dominant-baseline="hanging"><tspan x="7" dy="0em">3,0</tspan></text>
<text x="58.0" y="42" font-size="12" text-anchor="end" dominant-baseline="auto"><tspan x="58.0" dy="0em">2,1</tspan></text>
</g>
<g id="d66">
<rect x="0" y="0" width="52" height="52" rx="5" fill="none" stroke="black" stroke-width="2" />
<rect x="1" y="1" width="50" height="50" rx="5" fill="#aaaaaa" />
<rect x="6" y="4" width="40" height="40" rx="5" fill="#d0d0d0" />
<text x="7" y="5" font-size="12" text-anchor="start" dominant-baseline="hanging"><tspan x="7" dy="0em">3,1</tspan></text>
<text x="45" y="42" font-size="12" text-anchor="end" dominant-baseline="auto"><tspan x="45" dy="0em">2,1</tspan></text>
</g>
<g id="d67">
<rect x="0" y="0" width="91.0" height="52" rx="5" fill="none" stroke="black" stroke-width="2" />
<rect x="1" y="1" width="89.0" height="50" rx="5" fill="#aaaaaa" />
<rect x="6" y="4" width="79.0" height="40" rx="5" fill="#d0d0d0" />
<text x="7" y="5" font-size="12" text-anchor="start" dominant-baseline="hanging"><tspan x="7" dy="0em">3,12</tspan></text>
<text x="84.0" y="42" font-size="12" text-anchor="end" dominant-baseline="auto"><tspan x="84.0" dy="0em">3,1</tspan></text>
</g>
<g id="d68">
<rect x="0" y="0" width="52" height="52" rx="5" fill="none" stroke="black" stroke-width="2" />
<rect x="1" y="1" width="50" height="50" rx="5" fill="#aaaaaa" />
<rect x="6" y="4" width="40" height="40" rx="5" fill="#d0d0d0" />
<text x="7" y="5" font-size="12" text-anchor="start" dominant-baseline="hanging"><tspan x="7" dy="0em">3,13</tspan></text>
<text x="45" y="42" font-size="12" text-anchor="end" dominant-baseline="auto"><tspan x="45" dy="0em">3,1</tspan></text>
</g>
<g id="d69">
<rect x="0" y="0" width="78.0" height="52" rx="5" fill="none" stroke="black" stroke-width="2" />
<rect x="1" y="1" width="76.0" height="50" rx="5" fill="#aaaaaa" />
<rect x="6" y="4" width="66.0" height="40" rx="5" fill="#d0d0d0" />
<text x="7" y="5" font-size="12" text-anchor="start" dominant-baseline="hanging"><tspan x="7" dy="0em">4,0</tspan></text>
<text x="71.0" y="42" font-size="12" text-anchor="end" dominant-baseline="auto"><tspan x="71.0" dy="0em">4,1</tspan></text>
</g>
<g id="d70">
<rect x="0" y="0" width="52" height="52" rx="5" fill="none" stroke="black" stroke-width="2" />
<rect x="1" y="1" width="50" height="50" rx="5" fill="#aaaaaa" />
<rect x="6" y="4" width="40" height="40" rx="5" fill="#d0d0d0" />
<text x="7" y="5" font-size="12" text-anchor="start" dominant-baseline="hanging"><tspan x="7" dy="0em">4,1</tspan></text>
<text x="45" y="42" font-size="12" text-anchor="end" dominant-baseline="auto"><tspan x="45" dy="0em">4,1</tspan></text>
</g>
<g id="d71">
<rect x="0" y="0" width="78.0" height="52" rx="5" fill="none" stroke="black" stroke-width="2" />
<rect x="1" y="1" width="76.0" height="50" rx="5" fill="#aaaaaa" />
<rect x="6" y="4" width="66.0" height="40" rx="5" fill="#d0d0d0" />
<text x="7" y="5" font-size="12" text-anchor="start" dominant-baseline="hanging"><tspan x="7" dy="0em">4,2</tspan></text>
<text x="71.0" y="42" font-size="12" text-anchor="end" dominant-baseline="auto"><tspan x="71.0" dy="0em">4,1</tspan></text>
</g>
<g id="d72">
<rect x="0" y="0" width="364" height="52" rx="5" fill="none" stroke="black" stroke-width="2" />
<rect x="1" y="1" width="362" height="50" rx="5" fill="#cccccc" />
<rect x="6" y="4" width="352" height="40" rx="5" fill="#fbfbfb" />
<text x="7" y="5" font-size="12" text-anchor="start" dominant-baseline="hanging"><tspan x="7" dy="0em">4,3</tspan></text>
<text x="357" y="42" font-size="12" text-anchor="end" dominant-baseline="auto"><tspan x="357" dy="0em">4,1</tspan></text>
</g>
<g id="d73">
<rect x="0" y="0" width="78.0" height="52" rx="5" fill="none" stroke="black" stroke-width="2" />
<rect x="1" y="1" width="76.0" height="50" rx="5" fill="#aaaaaa" />
<rect x="6" y="4" width="66.0" height="40" rx="5" fill="#d0d0d0" />
<text x="7" y="5" font-size="12" text-anchor="start" dominant-baseline="hanging"><tspan x="7" dy="0em">4,11</tspan></text>
<text x="71.0" y="42" font-size="12" text-anchor="end" dominant-baseline="auto"><tspan x="71.0" dy="0em">4,1</tspan></text>
</g>
<g id="d74">
<rect x="0" y="0" width="52" height="52" rx="5" fill="none" stroke="black" stroke-width="2" />
<rect x="1" y="1" width="50" height="50" rx="5" fill="#aaaaaa" />
<rect x="6" y="4" width="40" height="40" rx="5" fill="#d0d0d0" />
<text x="7" y="5" font-size="12" text-anchor="start" dominant-baseline="hanging"><tspan x="7" dy="0em">4,12</tspan></text>
<text x="45" y="42" font-size="12" text-anchor="end" dominant-baseline="auto"><tspan x="45" dy="0em">4,1</tspan></text>
</g>
<g id="d75">
<rect x="0" y="0" width="78.0" height="52" rx="5" fill="none" stroke="black" stroke-width="2" />
<rect x="1" y="1" width="76.0" height="50" rx="5" fill="#aaaaaa" />
<rect x="6" y="4" width="66.0" height="40" rx="5" fill="#d0d0d0" />
<text x="7" y="5" font-size="12" text-anchor="start" dominant-baseline="hanging"><tspan x="7" dy="0em">4,13</tspan></text>
<text x="71.0" y="42" font-size="12" text-anchor="end" dominant-baseline="auto"><tspan x="71.0" dy="0em">4,1</tspan></text>
</g>
<g id="d76">
<text x="7" y="5" font-size="12" text-anchor="start" dominant-baseline="hanging"><tspan x="7" dy="0em">4,0</tspan></text>
<text x="71.0" y="42" font-size="12" text-anchor="end" dominant-baseline="auto"><tspan x="71.0" dy="0em">4,2</tspan></text>
</g>
<g id="d77">
<rect x="0" y="0" width="52" height="52" rx="5" fill="none" stroke="black" stroke-width="2" />
<rect x="1" y="1" width="50" height="50" rx="5" fill="#aaaaaa" />
<rect x="6" y="4" width="40" height="40" rx="5" fill="#d0d0d0" />
<text x="7" y="5" font-size="12" text-anchor="start" dominant-baseline="hanging"><tspan x="7" dy="0em">4,1</tspan></text>
<text x="45" y="42" font-size="12" text-anchor="end" dominant-baseline="auto"><tspan x="45" dy="0em">4,2</tspan></text>
</g>
<g id="d78">
<rect x="0" y="0" width="78.0" height="52" rx="5" fill="none" stroke="black" stroke-width="2" />
<rect x="1" y="1" width="76.0" height="50" rx="5" fill="#aaaaaa" />
<rect x="6" y="4" width="66.0" height="40" rx="5" fill="#d0d0d0" />
<text x="7" y="5" font-size="12" text-anchor="start" dominant-baseline="hanging"><tspan x="7" dy="0em">4,2</tspan></text>
<text x="71.0" y="42" font-size="12" text-anchor="end" dominant-baseline="auto"><tspan x="71.0" dy="0em">4,2</tspan></text>
</g>
<g id="d79">
<rect x="0" y="0" width="364" height="52" rx="5" fill="none" stroke="black" stroke-width="2" />
<rect x="1" y="1" width="362" height="50" rx="5" fill="#cccccc" />
<rect x="6" y="4" width="352" height="40" rx="5" fill="#fbfbfb" />
<text x="7" y="5" font-size="12" text-anchor="start" dominant-baseline="hanging"><tspan x="7" dy="0em">4,3</tspan></text>
<text x="357" y="42" font-size="12" text-anchor="end" dominant-baseline="auto"><tspan x="357" dy="0em">4,2</tspan></text>
</g>
<g id="d80">
<rect x="0" y="0" width="78.0" height="52" rx="5" fill="none" stroke="black" stroke-width="2" />
<rect x="1" y="1" width="76.0" height="50" rx="5" fill="#aaaaaa" />
<rect x="6" y="4" width="66.0" height="40" rx="5" fill="#d0d0d0" />
<text x="7" y="5" font-size="12" text-anchor="start" dominant-baseline="hanging"><tspan x="7" dy="0em">4,11</tspan></text>
<text x="71.0" y="42" font-size="12" text-anchor="end" dominant-baseline="auto"><tspan x="71.0" dy="0em">4,2</tspan></text>
</g>
<g id="d81">
<rect x="0" y="0" width="52" height="52" rx="5" fill="none" stroke="black" stroke-width="2" />
<rect x="1" y="1" width="50" height="50" rx="5" fill="#aaaaaa" />
<rect x="6" y="4" width="40" height="40" rx="5" fill="#d0d0d0" />
<text x="7" y="5" font-size="12" text-anchor="start" dominant-baseline="hanging"><tspan x="7" dy="0em">4,12</tspan></text>
<text x="45" y="42" font-size="12" text-anchor="end" dominant-baseline="auto"><tspan x="45" dy="0em">4,2</tspan></text>
</g>
<g id="d82">
<text x="7" y="5" font-size="12" text-anchor="start" dominant-baseline="hanging"><tspan x="7" dy="0em">4,13</tspan></text>
<text x="71.0" y="42" font-size="12" text-anchor="end" dominant-baseline="auto"><tspan x="71.0" dy="0em">4,2</tspan></text>
</g>
<g id="d83">
<rect x="0" y="0" width="78.0" height="52" rx="5" fill="none" stroke="black" stroke-width="2" />
<rect x="1" y="1" width="76.0" height="50" rx="5" fill="#aaaaaa" />
<rect x="6" y="4" width="66.0" height="40" rx="5" fill="#d0d0d0" />
<text x="7" y="5" font-size="12" text-anchor="start" dominant-baseline="hanging"><tspan x="7" dy="0em">4,0</tspan></text>
<text x="71.0" y="42" font-size="12" text-anchor="end" dominant-baseline="auto"><tspan x="71.0" dy="0em">4,3</tspan></text>
</g>
<g id="d84">
<text x="7" y="5" font-size="12" text-anchor="start" dominant-baseline="hanging"><tspan x="7" dy="0em">4,1</tspan></text>
<text x="45" y="42" font-size="12" text-anchor="end" dominant-baseline="auto"><tspan x="45" dy="0em">4,3</tspan></text>
</g>
<g id="d85">
<rect x="0" y="0" width="78.0" height="52" rx="5" fill="none" stroke="black" stroke-width="2" />
<rect x="1" y="1" width="76.0" height="50" rx="5" fill="#aaaaaa" />
<rect x="6" y="4" width="66.0" height="40" rx="5" fill="#d0d0d0" />
<text x="7" y="5" font-size="12" text-anchor="start" dominant-baseline="hanging"><tspan x="7" dy="0em">4,2</tspan></text>
<text x="71.0" y="42" font-size="12" text-anchor="end" dominant-baseline="auto"><tspan x="71.0" dy="0em">4,3</tspan></text>
</g>
<g id="d86">
<rect x="0" y="0" width="364" height="52" rx="5" fill="none" stroke="black" stroke-width="2" />
<rect x="1" y="1" width="362" height="50" rx="5" fill="#cccccc" />
<rect x="6" y="4" width="352" height="40" rx="5" fill="#fbfbfb" />
<text x="7" y="5" font-size="12" text-anchor="start" dominant-baseline="hanging"><tspan x="7" dy="0em">4,3</tspan></text>
<text x="357" y="42" font-size="12" text-anchor="end" dominant-baseline="auto"><tspan x="357" dy="0em">4,3</tspan></text>
</g>
<g id="d87">
<rect x="0" y="0" width="78.0" height="52" rx="5" fill="none" stroke="black" stroke-width="2" />
<rect x="1" y="1" width="76.0" height="50" rx="5" fill="#aaaaaa" />
<rect x="6" y="4" width="66.0" height="40" rx="5" fill="#d0d0d0" />
<text x="7" y="5" font-size="12" text-anchor="start" dominant-baseline="hanging"><tspan x="7" dy="0em">4,11</tspan></text>
<text x="71.0" y="42" font-size="12" text-anchor="end" dominant-baseline="auto"><tspan x="71.0" dy="0em">4,3</tspan></text>
</g>
<g id="d88">
<text x="7" y="5" font-size="12" text-anchor="start" dominant-baseline="hanging"><tspan x="7" dy="0em">4,12</tspan></text>
<text x="45" y="42" font-size="12" text-anchor="end" dominant-baseline="auto"><tspan x="45" dy="0em">4,3</tspan></text>
</g>
<g id="d89">
<rect x="0" y="0" width="78.0" height="52" rx="5" fill="none" stroke="black" stroke-width="2" />
<rect x="1" y="1" width="76.0" height="50" rx="5" fill="#aaaaaa" />
<rect x="6" y="4" width="66.0" height="40" rx="5" fill="#d0d0d0" />
<text x="7" y="5" font-size="12" text-anchor="start" dominant-baseline="hanging"><tspan x="7" dy="0em">4,13</tspan></text>
<text x="71.0" y="42" font-size="12" text-anchor="end" dominant-baseline="auto"><tspan x="71.0" dy="0em">4,3</tspan></text>
</g>
</defs>
<use xlink:href="#d0" x="134.0" y="4" />
<use xlink:href="#d1" x="186.0" y="4" />
<use xlink:href="#d2" x="238.0" y="4" />
<use xlink:href="#d3" x="290.0" y="4" />
<use xlink:href="#d4" x="342.0" y="4" />
<use xlink:href="#d5" x="394.0" y="4" />
<use xlink:href="#d6" x="446.0" y="4" />
<use xlink:href="#d7" x="498.0" y="4" />
<use xlink:href="#d8" x="550.0" y="4" />
<use xlink:href="#d9" x="602.0" y="4" />
<use xlink:href="#d10" x="654.0" y="4" />
<use xlink:href="#d11" x="706.0" y="4" />
<use xlink:href="#d12" x="758.0" y="4" />
<use xlink:href="#d13" x="810.0" y="4" />
<use xlink:href="#d14" x="134.0" y="56" />
<use xlink:href="#d15" x="212.0" y="56" />
<use xlink:href="#d16" x="264.0" y="56" />
<use xlink:href="#d17" x="316.0" y="56" />
<use xlink:href="#d18" x="368.0" y="56" />
<use xlink:href="#d19" x="420.0" y="56" />
<use xlink:href="#d20" x="472.0" y="56" />
<use xlink:href="#d21" x="524.0" y="56" />
<use xlink:href="#d22" x="576.0" y="56" />
<use xlink:href="#d23" x="628.0" y="56" />
<use xlink:href="#d24" x="680.0" y="56" />
<use xlink:href="#d25" x="732.0" y="56" />
<use xlink:href="#d26" x="784.0" y="56" />
<use xlink:href="#d27" x="836.0" y="56" />
<use xlink:href="#d28" x="134.0" y="108" />
<use xlink:href="#d29" x="225.0" y="108" />
<use xlink:href="#d30" x="277.0" y="108" />
<use xlink:href="#d31" x="329.0" y="108" />
<use xlink:href="#d32" x="381.0" y="108" />
<use xlink:href="#d33" x="433.0" y="108" />
<use xlink:href="#d34" x="485.0" y="108" />
<use xlink:href="#d35" x="537.0" y="108" />
<use xlink:href="#d36" x="589.0" y="108" />
<use xlink:href="#d37" x="641.0" y="108" />
<use xlink:href="#d38" x="693.0" y="108" />
<use xlink:href="#d39" x="745.0" y="108" />
<use xlink:href="#d40" x="797.0" y="108" />
<use xlink:href="#d41" x="134.0" y="160" />
<use xlink:href="#d42" x="251.0" y="160" />
<use xlink:href="#d43" x="303.0" y="160" />
<use xlink:href="#d44" x="355.0" y="160" />
<use xlink:href="#d45" x="407.0" y="160" />
<use xlink:href="#d46" x="459.0" y="160" />
<use xlink:href="#d47" x="511.0" y="160" />
<use xlink:href="#d48" x="563.0" y="160" />
<use xlink:href="#d49" x="615.0" y="160" />
<use xlink:href="#d50" x="667.0" y="160" />
<use xlink:href="#d51" x="719.0" y="160" />
<use xlink:href="#d52" x="771.0" y="160" />
<use xlink:href="#d53" x="134.0" y="212" />
<use xlink:href="#d54" x="199.0" y="212" />
<use xlink:href="#d55" x="264.0" y="212" />
<use xlink:href="#d56" x="329.0" y="212" />
<use xlink:href="#d57" x="654.0" y="212" />
<use xlink:href="#d58" x="719.0" y="212" />
<use xlink:href="#d59" x="784.0" y="212" />
<use xlink:href="#d60" x="849.0" y="212" />
<use xlink:href="#d61" x="940.0" y="4" />
<use xlink:href="#d62" x="992.0" y="4" />
<use xlink:href="#d63" x="979.0" y="56" />
<use xlink:href="#d64" x="927.0" y="108" />
<use xlink:href="#d65" x="4" y="160" />
<use xlink:href="#d66" x="69.0" y="160" />
<use xlink:href="#d67" x="927.0" y="160" />
<use xlink:href="#d68" x="1018.0" y="160" />
<use xlink:href="#d69" x="134.0" y="290.0" />
<use xlink:href="#d70" x="212.0" y="290.0" />
<use xlink:href="#d71" x="264.0" y="290.0" />
<use xlink:href="#d72" x="342.0" y="290.0" />
<use xlink:href="#d73" x="706.0" y="290.0" />
<use xlink:href="#d74" x="784.0" y="290.0" />
<use xlink:href="#d75" x="836.0" y="290.0" />
<use xlink:href="#d76" x="134.0" y="342.0" />
<use xlink:href="#d77" x="212.0" y="342.0" />
<use xlink:href="#d78" x="264.0" y="342.0" />
<use xlink:href="#d79" x="342.0" y="342.0" />
<use xlink:href="#d80" x="706.0" y="342.0" />
<use xlink:href="#d81" x="784.0" y="342.0" />
<use xlink:href="#d82" x="836.0" y="342.0" />
<use xlink:href="#d83" x="134.0" y="394.0" />
<use xlink:href="#d84" x="212.0" y="394.0" />
<use xlink:href="#d85" x="264.0" y="394.0" />
<use xlink:href="#d86" x="342.0" y="394.0" />
<use xlink:href="#d87" x="706.0" y="394.0" />
<use xlink:href="#d88" x="784.0" y="394.0" />
<use xlink:href="#d89" x="836.0" y="394.0" />
</svg>